<svg width="161" height="158" viewBox="0 0 161 158" fill="none" xmlns="http://www.w3.org/2000/svg">
<g clip-path="url(#clip0_7807_157)">
<path d="M60.3836 3.1275C51.0621 5.5239 43.1824 9.01693 35.4042 14.2362C32.297 16.3077 26.8137 20.5928 26.7934 20.9787C26.7731 21.0599 27.5245 20.5115 28.4587 19.7398C31.2816 17.4043 33.15 16.0843 31.6472 17.4856C31.2613 17.8512 30.9566 18.2776 30.9973 18.3995C31.0176 18.5417 30.9566 18.7041 30.8348 18.7854C30.388 19.0494 30.6723 19.2321 31.3019 19.0899C32.3173 18.8259 33.9826 18.1964 34.0435 18.0339C34.0842 17.9527 34.2263 17.9324 34.3685 17.9933C34.5107 18.0542 35.1605 17.8512 35.8104 17.5668C36.4603 17.2825 37.2117 17.0388 37.4757 17.0185C37.7397 16.9982 37.9428 16.917 37.9428 16.8357C37.9428 16.7748 38.0646 16.7139 38.2068 16.7139C38.3489 16.7139 39.5675 16.2468 40.8875 15.6782C43.3449 14.6424 45.8022 13.7691 47.041 13.5051C47.5284 13.4036 47.6909 13.4442 47.6909 13.6473C47.6909 14.1956 46.777 14.8049 44.9289 15.4954C43.1011 16.2062 38.7145 18.0745 38.0037 18.4604C34.2263 20.5115 33.0078 21.2224 31.0379 22.5018C27.8901 24.5529 24.6407 27.0915 20.9852 30.3612C18.5482 32.5342 17.9186 33.0013 17.7968 32.7373C17.6952 32.4936 17.6546 32.5545 17.6546 32.9606L17.6343 33.5293L18.2233 33.0622C18.5482 32.7982 19.3808 32.0874 20.0916 31.4578C27.3824 25.0403 37.5569 19.2321 45.7209 16.8357L47.3253 16.3686L48.1579 16.8357C50.7372 18.2979 56.3423 22.6033 60.2415 26.1167C61.846 27.5586 63.5516 29.0614 64.0392 29.4473C64.8923 30.1175 65.156 30.7673 64.5877 30.7673C64.4655 30.7673 64.3438 30.8283 64.3438 30.9298C64.3438 31.011 64.2018 31.3766 63.9983 31.7422C63.8159 32.0874 63.6738 32.4529 63.6937 32.5342C63.7141 32.6357 63.6329 32.6966 63.5112 32.6966C63.4095 32.6966 63.3691 32.7779 63.43 32.8997C63.4908 33.0013 63.4504 33.1028 63.3282 33.1028C63.2066 33.1028 63.1657 33.184 63.2271 33.3059C63.2879 33.4075 63.2674 33.509 63.1657 33.509C63.0645 33.509 62.7599 34.037 62.4956 34.6666C62.2518 35.3164 61.7442 36.4537 61.3583 37.2051C60.9929 37.9768 60.6678 38.647 60.6479 38.7283C60.6479 38.8298 60.3632 39.4797 60.0386 40.2108C59.2668 41.8964 59.0025 42.4854 58.9622 42.7494C58.9213 42.8509 58.7388 43.318 58.5558 43.7648C58.3529 44.2115 58.1699 44.6583 58.1296 44.7802C58.0886 44.8817 57.3782 46.9938 56.5454 49.4512C54.7785 54.6095 52.5243 62.3674 52.0368 64.9465C51.8541 65.9213 51.6104 66.8352 51.4886 66.9772C51.3261 67.1807 51.3464 67.2211 51.5698 67.1807C51.7323 67.1398 51.8744 67.3228 51.915 67.566C51.9556 67.8303 52.1181 68.0332 52.2806 68.0332C52.443 68.0332 52.5649 68.135 52.5649 68.277C52.5649 68.3992 52.6258 68.46 52.6867 68.3788C52.8695 68.2162 53.7224 68.8255 58.7587 72.684C63.9375 76.6647 63.0645 76.0145 67.6744 79.3046C69.7863 80.8073 71.5937 82.1276 71.655 82.2697C71.7363 82.3913 71.8579 82.4726 71.9392 82.4527C72.1626 82.4118 74.9043 84.3209 74.9043 84.5238C74.9043 84.6255 75.006 84.646 75.1072 84.5846C75.2294 84.5238 75.3715 84.605 75.4323 84.7676C75.4931 84.9506 75.696 85.0927 75.8386 85.0927C76.0006 85.0927 76.1836 85.2348 76.2444 85.3973C76.3257 85.5598 76.4479 85.6411 76.5491 85.5798C76.6508 85.5189 76.7929 85.6207 76.8537 85.7832C76.9145 85.9657 77.0572 86.0469 77.1583 85.9861C77.2601 85.9253 77.4022 86.0265 77.463 86.189C77.5238 86.372 77.6664 86.4533 77.7676 86.3925C77.8693 86.3311 78.0114 86.4328 78.0722 86.5954C78.133 86.7784 78.2757 86.8591 78.3769 86.7983C78.4786 86.7375 78.6207 86.8392 78.6815 87.0017C78.7423 87.1842 78.885 87.2859 78.9861 87.2251C79.0674 87.1637 79.2504 87.3064 79.372 87.5297C79.4937 87.7531 79.6767 87.8952 79.7983 87.8344C79.9 87.7531 80.0421 87.8543 80.1029 88.0168C80.1643 88.1998 80.3064 88.2811 80.4076 88.2203C80.5093 88.1589 80.6514 88.2606 80.7122 88.4232C80.7736 88.6062 80.8952 88.7074 80.9969 88.6465C81.0782 88.6062 81.3419 88.7483 81.5653 88.9716C81.8091 89.195 82.012 89.3166 82.012 89.2763C82.012 89.2149 82.4587 89.4388 83.0072 89.7633C83.9819 90.3322 85.2618 90.5351 85.2618 90.1089C85.2618 89.9867 85.3226 89.9668 85.3834 90.0276C85.4647 90.0884 85.7085 90.0481 85.9518 89.9259C86.1757 89.7838 86.4394 89.7025 86.5411 89.723C86.6224 89.7435 86.6832 89.6622 86.6832 89.5604C86.6832 89.4388 86.785 89.3575 86.8861 89.3575C87.13 89.3575 91.7807 86.7784 94.7049 85.0319C100.148 81.7622 105.021 78.2077 112.962 71.7297C116.455 68.8863 116.882 68.4799 117.796 67.2614C118.852 65.9008 119.014 65.4137 118.75 64.5203C118.649 64.1543 118.385 62.9971 118.161 61.9411C117.451 58.5697 115.907 52.7817 115.399 51.6241C115.196 51.218 115.014 50.6899 114.973 50.4666C114.932 50.2432 114.811 49.9792 114.709 49.8776C114.587 49.7557 114.506 49.5324 114.506 49.3699C114.506 49.2278 114.262 48.5779 113.958 47.9483C113.673 47.3187 113.369 46.6283 113.267 46.4049C111.988 43.0134 107.682 34.1182 106.24 31.8234C105.935 31.336 105.814 30.9501 105.915 30.808C108.576 27.1118 116.862 16.2468 117.004 16.2468C117.511 16.2468 123.116 18.8869 125.919 20.4506C130.549 23.0095 139.059 28.7771 140.379 30.2393C140.886 30.7876 140.988 30.7673 141.293 30.1378C141.496 29.6504 141.455 29.5082 140.785 28.6552C139.221 26.7259 132.783 20.5115 130.143 18.3995C122.325 12.1648 113.978 7.63596 104.879 4.69125C103.194 4.14292 101.407 3.63521 100.899 3.57429C100.391 3.49305 99.7211 3.39151 99.3761 3.33059C98.9902 3.26966 99.579 3.67583 100.96 4.44755C106.707 7.6766 111.46 11.1087 115.46 14.8252L116.781 16.064L115.277 17.8308C114.465 18.8057 113.226 20.2273 112.516 20.9787C110.444 23.2532 107.012 28.0866 106.058 30.0971C105.692 30.9095 105.245 31.0923 105.021 30.544C104.961 30.3815 104.778 30.2799 104.636 30.3408C104.474 30.4018 104.351 30.3408 104.351 30.2393C104.351 30.0971 104.128 30.0566 103.844 30.0971C103.56 30.1581 103.336 30.1175 103.336 29.9956C103.336 29.8941 103.113 29.8534 102.828 29.8941C102.544 29.955 102.321 29.9144 102.321 29.8129C102.321 29.691 102.097 29.6707 101.813 29.7316C101.488 29.8129 101.305 29.7722 101.305 29.6301C101.305 29.4879 101.123 29.4473 100.798 29.5285C100.513 29.6098 100.29 29.5691 100.29 29.4473C100.29 29.3457 100.087 29.2442 99.8433 29.2645C99.579 29.2645 98.5634 29.1224 97.5483 28.9396C96.5531 28.7568 95.3749 28.635 94.9691 28.6756C94.5423 28.7162 94.1973 28.6756 94.1973 28.574C94.1973 28.4725 93.6489 28.4319 92.9993 28.4725C92.3292 28.4928 91.8415 28.4522 91.9023 28.3506C92.0041 28.2085 83.251 28.31 80.4888 28.5131C79.8188 28.5537 78.3161 28.6552 77.1379 28.7162C75.9603 28.7974 73.767 29.0005 72.2643 29.163C69.7863 29.4473 68.9133 29.5489 66.0296 29.9753L65.1765 30.1175L62.0693 27.254C57.3782 22.9485 54.5551 20.735 49.9857 17.7293C48.7266 16.8966 47.6909 16.1655 47.6909 16.0843C47.6909 15.6985 50.27 12.7334 52.3212 10.7432C55.0222 8.10309 58.1699 5.68637 61.3788 3.75706C62.5973 3.02596 63.4703 2.43701 63.3083 2.43701C63.1458 2.45732 61.846 2.76195 60.3836 3.1275ZM91.3135 28.574C91.1106 28.6147 90.7446 28.6147 90.5014 28.574C90.2371 28.5334 90.3996 28.4928 90.8464 28.4928C91.2931 28.4725 91.496 28.5131 91.3135 28.574ZM94.5423 30.6455C98.8481 31.1532 104.128 31.9859 104.311 32.2092C104.453 32.3514 104.088 32.3108 99.8836 31.6812C93.2425 30.7064 91.2323 30.5643 82.6213 30.5846C74.4371 30.5846 74.2745 30.5846 67.6539 31.3969C67.0651 31.4782 66.4967 31.6406 66.395 31.7624C66.0904 32.128 62.8207 38.7283 61.9068 40.8201C59.2867 46.8313 57.7232 51.6038 55.1847 61.2097C54.4739 63.8906 53.8646 65.9622 53.824 65.84C53.7224 65.5149 54.7379 60.3162 55.4284 57.6763C56.7484 52.7005 58.2512 48.2124 60.2819 43.1352C61.6834 39.6422 65.867 31.1532 66.2529 31.011C66.4354 30.9298 68.2836 30.747 70.3757 30.5643C72.4672 30.4018 74.5587 30.219 75.006 30.1784C75.4527 30.1378 79.2095 30.1175 83.3323 30.1581C89.4448 30.1987 91.5369 30.3003 94.5423 30.6455Z" fill="black"/>
<path d="M25.4535 22.177L24.6411 23.0502L25.5144 22.2379C25.9814 21.8114 26.3673 21.4256 26.3673 21.385C26.3673 21.2225 26.1846 21.385 25.4535 22.177Z" fill="black"/>
<path d="M21.3919 26.2386L20.5796 27.1118L21.4529 26.2995C21.9199 25.873 22.3058 25.4871 22.3058 25.4465C22.3058 25.284 22.123 25.4465 21.3919 26.2386Z" fill="black"/>
<path d="M19.6451 28.1677L19.1577 28.7364L19.7263 28.2489C20.234 27.7819 20.3762 27.6194 20.2138 27.6194C20.1731 27.6194 19.9294 27.8631 19.6451 28.1677Z" fill="black"/>
<path d="M18.0611 30.991C18.0611 31.2143 18.1221 31.2752 18.183 31.1128C18.2439 30.9706 18.2236 30.7878 18.1626 30.7269C18.1017 30.6457 18.0408 30.7675 18.0611 30.991Z" fill="black"/>
<path d="M17.8585 31.8032C17.8585 32.0266 17.9194 32.0875 17.9803 31.925C18.0413 31.7829 18.0209 31.6001 17.96 31.5392C17.8991 31.4579 17.8381 31.5798 17.8585 31.8032Z" fill="black"/>
<path d="M6.30255 63.5047C4.14987 66.2464 2.11902 70.1253 0.798968 74.0446C0.0881725 76.1163 -0.0336783 76.7255 0.00693867 78.0049C0.0272472 79.4468 0.0272472 79.4672 0.169407 78.4925C0.25064 77.9236 0.331874 77.7207 0.331874 78.0253C0.352183 78.3504 0.453725 78.5937 0.534959 78.5937C0.636501 78.5937 0.798968 79.2029 0.941129 79.9543C1.32699 82.3715 1.42853 82.7574 1.73316 83.1024C1.89563 83.2854 2.0581 83.7929 2.0784 84.2192C2.13933 85.1939 2.56581 86.8392 2.93136 87.5906C3.09383 87.9157 3.21568 88.5249 3.21568 88.9512C3.21568 89.4184 3.31722 89.7634 3.5 89.8242C3.64216 89.8856 3.84524 90.3726 3.92648 90.9006C4.00771 91.4286 4.2311 92.18 4.4545 92.5863C4.65758 92.9927 4.84036 93.419 4.84036 93.561C4.84036 93.6832 5.04345 94.2311 5.28715 94.7796C5.53085 95.3076 5.75421 96.0794 5.79485 96.4653C5.85578 96.8512 6.05885 97.3587 6.26197 97.5821C6.46504 97.8055 6.72904 98.4761 6.85089 99.0649C6.97274 99.6742 7.3383 100.527 7.66323 100.994C7.96786 101.461 8.37406 102.436 8.53649 103.167C9.12547 105.645 10.8314 110.295 12.0905 112.773C12.456 113.524 12.72 114.235 12.6591 114.337C12.5982 114.438 13.1262 115.596 13.8573 116.916C15.0962 119.13 15.1571 119.312 14.7915 119.454C14.0401 119.739 14.3853 119.8 16.3756 119.719C18.8735 119.617 21.6964 119.008 23.9303 118.053C26.9563 116.794 26.8344 116.774 29.8807 119.454C35.4655 124.389 41.355 128.472 49.1129 132.777C52.6871 134.747 53.2558 135.336 53.5807 137.305C54.1493 140.9 55.7131 144.658 58.0082 147.947C59.3688 149.917 62.8618 154.202 64.4862 155.888L65.6643 157.126L67.8979 157.37C72.7317 157.898 74.5999 157.98 79.7786 158C85.262 158 88.1458 157.837 92.4715 157.269C95.8224 156.822 100.697 155.807 101.306 155.421C102.158 154.872 105.205 152.212 106.302 151.054C109.937 147.257 112.902 142.383 114.405 137.793C114.689 136.9 115.055 135.864 115.237 135.498C115.603 134.726 117.268 133.589 121.371 131.274C122.751 130.502 125.168 128.898 126.752 127.72C131.322 124.288 133.637 122.156 136.967 118.337C138.165 116.977 139.628 115.312 140.237 114.662L141.354 113.443L142.309 113.809C146.127 115.291 148.157 115.555 150.574 114.844C152.625 114.256 153.6 112.753 155.488 107.209C158.758 97.6838 160.038 89.8242 159.895 79.9139C159.855 75.4257 159.814 75.1415 159.225 72.8869C158.068 68.6226 156.26 64.0935 155.346 63.2813C155.001 62.9562 154.941 63.017 154.189 64.2969C153.336 65.7792 151.61 67.7286 148.239 71.0597C145.497 73.7605 141.781 76.9489 141.212 77.091C140.887 77.1722 140.318 76.9489 139.364 76.3396C138.592 75.8724 137.394 75.1415 136.723 74.7147C134.774 73.5166 130.672 71.4251 128.011 70.2674C126.671 69.6786 124.132 68.5209 122.365 67.6883C120.619 66.8352 119.116 66.1856 119.055 66.2668C118.913 66.3885 119.137 66.551 123.341 69.2518C125.249 70.4703 126.996 71.6485 127.239 71.8719C128.194 72.7653 130.509 74.0651 137.211 77.4769L140.298 79.0404V79.8327C140.298 80.2589 140.216 80.6448 140.115 80.7261C140.014 80.7869 139.851 81.1325 139.77 81.4979C139.709 81.8435 139.384 82.5135 139.079 82.9603C138.613 83.6303 138.531 83.9554 138.572 84.9097C138.592 85.5394 138.673 86.1487 138.734 86.2504C138.816 86.372 138.917 87.7122 138.978 89.2558C139.039 90.7995 139.181 92.18 139.303 92.3226C139.445 92.4846 139.425 92.6068 139.242 92.6676C139.039 92.7489 139.039 92.8097 139.222 92.9518C139.404 93.074 139.506 94.3738 139.587 97.3792C139.75 104.63 139.709 107.087 139.303 109.037C139.181 109.625 139.12 110.194 139.181 110.275C139.242 110.356 139.1 110.64 138.897 110.905C138.693 111.169 138.45 111.616 138.369 111.9C138.145 112.611 137.15 114.012 135.85 115.454C133.82 117.708 131.586 120.023 131.464 120.023C131.383 120.023 130.915 120.49 130.408 121.039C129.9 121.607 129.433 122.014 129.372 121.973C129.311 121.912 128.58 122.521 127.727 123.354C126.874 124.166 125.858 125.121 125.473 125.446C124.031 126.684 117.938 131.375 116.354 132.493C115.441 133.142 114.75 133.731 114.811 133.833C114.872 133.935 114.75 134.117 114.527 134.219C114.019 134.503 113.877 134.503 113.958 134.198C113.978 134.077 113.734 133.894 113.389 133.812C112.597 133.609 107.236 132.574 106.708 132.513C106.464 132.493 106.281 132.452 106.281 132.411C106.281 132.391 106.017 132.33 105.672 132.289C102.991 131.843 89.8315 126.705 85.5667 124.43L84.3481 123.78L84.2464 111.291L84.1452 98.8006L84.023 110.58C83.9418 117.058 83.8201 122.765 83.7389 123.232C83.5559 124.309 83.1699 124.572 78.763 126.806C72.7721 129.853 65.3188 132.594 58.0082 134.422L54.0884 135.417L53.6823 134.95C53.4588 134.686 52.1388 133.914 50.7578 133.224C43.8732 129.751 36.0139 124.451 29.6979 119.048L26.8344 116.591L26.408 115.129C26.1643 114.316 25.6362 112.225 25.2504 110.498C23.3414 101.867 22.6509 94.8813 22.7321 85.0518C22.793 79.6298 22.7525 79.183 22.4072 78.7971C22.2041 78.5738 21.9198 78.3908 21.7573 78.3908C21.0262 78.3908 10.7704 67.5865 8.02879 63.8906C7.58201 63.3217 7.17581 62.8346 7.07431 62.7937C6.99303 62.7533 6.64782 63.0784 6.30255 63.5047ZM8.94269 66.2464C11.7453 69.861 15.5429 74.0651 19.1578 77.4973C21.4121 79.6701 22.3057 80.6653 22.3057 80.9904C22.3057 82.1885 21.5948 81.7417 17.1879 77.7002C14.4463 75.2024 6.95245 66.9164 6.28226 65.6371C5.95734 65.0483 6.36348 63.7689 6.85089 63.7689C6.93211 63.7689 7.8663 64.8857 8.94269 66.2464ZM153.905 66.8147C152.991 68.1554 152.158 69.2927 152.077 69.3535C151.976 69.4143 152.646 68.3379 153.56 66.9369C154.473 65.5558 155.306 64.3981 155.387 64.3981C155.469 64.3776 154.798 65.4746 153.905 66.8147ZM151.874 69.7394C151.874 69.7798 151.711 69.9423 151.529 70.0844C151.204 70.3487 151.183 70.3282 151.448 70.0031C151.711 69.6786 151.874 69.5769 151.874 69.7394ZM0.311566 77.0097C0.25064 77.1722 0.189715 77.1114 0.189715 76.8881C0.169407 76.6647 0.230332 76.5425 0.291258 76.6238C0.352183 76.6846 0.372491 76.8676 0.311566 77.0097ZM86.6022 126.644C88.2879 127.7 93.1012 130.157 94.1572 130.482C94.4209 130.563 94.5835 130.665 94.5226 130.726C94.4817 130.787 93.3041 130.34 91.923 129.771C88.1458 128.147 84.8966 126.36 84.6931 125.75C84.5715 125.365 84.6732 125.425 86.6022 126.644ZM96.0253 131.193C96.1879 131.295 96.2487 131.396 96.1271 131.396C96.0253 131.396 95.7815 131.295 95.6196 131.193C95.457 131.091 95.4161 130.99 95.5178 130.99C95.6394 130.99 95.8628 131.091 96.0253 131.193Z" fill="black"/>
<path d="M48.7477 68.1759C47.6104 68.6835 46.6965 69.1506 46.7371 69.191C46.8184 69.2518 50.941 67.4854 51.1237 67.3024C51.3675 67.0586 50.6363 67.3433 48.7477 68.1759Z" fill="black"/>
<path d="M45.6603 69.557C45.376 69.7189 45.2542 69.8411 45.3557 69.8411C45.4775 69.8411 45.7821 69.7189 46.0665 69.557C46.3508 69.3944 46.493 69.2722 46.3711 69.2722C46.2696 69.2722 45.9446 69.3944 45.6603 69.557Z" fill="black"/>
<path d="M43.8327 70.3692C43.5484 70.5318 43.4265 70.6534 43.528 70.6534C43.6499 70.6534 43.9545 70.5318 44.2389 70.3692C44.5231 70.2067 44.6653 70.0845 44.5435 70.0845C44.4419 70.0845 44.117 70.2067 43.8327 70.3692Z" fill="black"/>
<path d="M0.00683594 80.0157C0.00683594 80.2999 0.0474529 80.4016 0.108378 80.2596C0.148996 80.1374 0.148996 79.8935 0.108378 79.7515C0.0474529 79.6298 0.00683594 79.7316 0.00683594 80.0157Z" fill="black"/>
<path d="M0.0267672 82.148C0.0267672 82.5947 0.0673844 82.7572 0.108001 82.493C0.148618 82.2491 0.148618 81.8837 0.108001 81.6808C0.0470757 81.4978 0.00645874 81.7013 0.0267672 82.148Z" fill="black"/>
<path d="M0.00683594 83.4677C0.00683594 83.7524 0.0474529 83.8536 0.108378 83.7115C0.148996 83.5899 0.148996 83.346 0.108378 83.204C0.0474529 83.0818 0.00683594 83.1835 0.00683594 83.4677Z" fill="black"/>
<path d="M80.9974 157.492C124.348 157.492 159.49 122.35 159.49 79C159.49 35.6498 124.348 0.507568 80.9974 0.507568C37.6472 0.507568 2.50488 35.6498 2.50488 79C2.50488 122.35 37.6472 157.492 80.9974 157.492Z" stroke="black" stroke-width="1.01542" stroke-linejoin="round"/>
</g>
<defs>
<clipPath id="clip0_7807_157">
<rect width="160.273" height="158" fill="white"/>
</clipPath>
</defs>
</svg>
