<?xml version="1.0" standalone="no"?>
<!DOCTYPE svg PUBLIC "-//W3C//DTD SVG 20010904//EN"
 "http://www.w3.org/TR/2001/REC-SVG-20010904/DTD/svg10.dtd">
<svg version="1.0" xmlns="http://www.w3.org/2000/svg"
 width="1080.000000pt" height="1080.000000pt" viewBox="0 0 1080.000000 1080.000000"
 preserveAspectRatio="xMidYMid meet">

<g transform="translate(0.000000,1080.000000) scale(0.100000,-0.100000)"
fill="#000000" stroke="none">
<path d="M5286 9084 c-9 -8 -16 -24 -16 -34 0 -10 7 -26 16 -34 8 -9 24 -16
34 -16 10 0 26 7 34 16 9 8 16 24 16 34 0 10 -7 26 -16 34 -8 9 -24 16 -34 16
-10 0 -26 -7 -34 -16z"/>
<path d="M5290 8721 c0 -71 6 -86 28 -72 9 5 12 28 10 72 -2 51 -6 64 -20 67
-16 3 -18 -5 -18 -67z"/>
<path d="M5395 8778 c-3 -7 -14 -39 -24 -70 -20 -58 -20 -58 0 -58 11 0 22 7
25 15 9 22 57 19 72 -5 11 -19 42 -28 42 -13 0 4 -10 37 -22 75 -21 66 -23 68
-55 68 -19 0 -36 -6 -38 -12z m52 -64 c-3 -4 -13 -4 -22 0 -13 5 -14 10 -4 28
l12 23 10 -23 c6 -12 7 -25 4 -28z"/>
<path d="M5132 8772 c-20 -13 -3 -136 20 -140 12 -2 18 5 20 24 4 37 25 42 39
10 7 -14 20 -26 31 -26 21 0 22 4 7 32 -8 14 -8 23 0 31 15 15 14 50 -1 65
-14 14 -96 16 -116 4z m88 -42 c0 -16 -7 -20 -30 -20 -23 0 -30 4 -30 20 0 16
7 20 30 20 23 0 30 -4 30 -20z"/>
<path d="M5586 8749 c-3 -17 -6 -48 -6 -69 0 -34 3 -38 31 -44 52 -10 79 -7
79 9 0 10 -11 15 -35 15 -28 0 -35 4 -35 19 0 17 5 19 35 14 28 -4 35 -2 35
11 0 9 -8 16 -19 16 -27 0 -52 11 -46 20 3 4 23 6 45 3 31 -4 40 -2 40 9 0 10
-14 18 -37 22 -71 11 -80 9 -87 -25z"/>
<path d="M4971 8741 c-17 -17 -18 -25 -10 -63 14 -60 27 -70 77 -62 68 11 77
22 66 85 l-9 54 -52 3 c-41 2 -56 -1 -72 -17z m93 -27 c3 -9 6 -27 6 -40 0
-21 -5 -24 -34 -24 -30 0 -34 3 -39 33 -2 17 -3 35 0 40 8 14 61 7 67 -9z"/>
<path d="M5733 8749 c-7 -7 -13 -23 -13 -36 0 -17 9 -25 40 -34 57 -17 53 -38
-6 -31 -68 7 -54 -20 15 -32 58 -10 71 -2 71 42 0 18 -9 27 -40 39 -53 21 -51
32 5 25 28 -3 45 -1 45 6 0 15 -9 19 -60 27 -31 4 -49 2 -57 -6z"/>
<path d="M4845 8726 c-33 -7 -51 -17 -53 -28 -3 -15 2 -17 27 -12 23 5 31 3
31 -7 0 -40 22 -89 40 -89 17 0 17 3 5 55 -13 59 -12 65 17 65 10 0 18 7 18
15 0 17 -16 18 -85 1z"/>
<path d="M5885 8716 c-26 -117 -26 -126 1 -126 8 0 14 7 14 16 0 14 7 15 39
10 47 -7 71 11 71 54 0 34 -9 41 -73 56 -44 11 -48 10 -52 -10z m76 -26 c5 0
9 -9 9 -20 0 -15 -7 -20 -24 -20 -14 0 -27 4 -30 9 -10 16 6 42 21 37 8 -3 19
-6 24 -6z"/>
<path d="M4695 8680 c-7 -11 21 -108 35 -123 12 -13 100 13 100 30 0 12 -8 13
-39 8 l-39 -6 -13 50 c-12 48 -30 64 -44 41z"/>
<path d="M6053 8678 c-16 -19 -35 -97 -27 -109 9 -16 69 -39 99 -39 20 0 29 8
41 36 21 49 15 86 -16 100 -44 21 -86 26 -97 12z m77 -38 c16 -9 17 -15 8 -40
-13 -38 -20 -42 -52 -30 -29 11 -31 17 -16 54 10 28 29 32 60 16z"/>
<path d="M4631 8661 c-11 -7 -11 -17 3 -57 13 -38 13 -49 4 -56 -28 -17 -44
-7 -61 42 -13 35 -22 48 -32 44 -8 -4 -15 -12 -15 -19 0 -20 37 -102 49 -109
16 -10 91 15 101 35 6 11 4 33 -7 65 -19 59 -24 66 -42 55z"/>
<path d="M6215 8630 c-14 -22 -43 -119 -38 -124 13 -13 31 -5 36 15 8 29 30
19 41 -19 12 -43 36 -51 36 -12 0 19 5 30 14 30 16 0 26 21 26 55 0 18 -11 27
-49 44 -57 24 -58 24 -66 11z m60 -44 c24 -17 14 -46 -15 -39 -25 7 -32 17
-24 37 7 20 15 20 39 2z"/>
<path d="M4433 8585 c-53 -24 -64 -42 -44 -74 8 -13 37 -13 90 1 7 1 15 -2 18
-8 2 -6 -14 -19 -37 -28 -38 -15 -50 -29 -32 -39 10 -7 112 40 112 52 0 5 -5
22 -10 37 -9 23 -15 26 -43 21 -17 -3 -40 -8 -49 -12 -10 -4 -18 -3 -18 3 0 5
18 17 40 26 28 11 38 20 34 31 -4 8 -7 15 -8 15 0 0 -25 -11 -53 -25z"/>
<path d="M6360 8566 c0 -8 9 -18 20 -21 25 -8 25 -16 0 -66 -20 -38 -20 -59 1
-59 5 0 19 20 31 45 23 48 28 51 58 35 13 -7 19 -6 24 5 4 10 -9 22 -42 39
-70 35 -92 40 -92 22z"/>
<path d="M4332 8541 c-12 -7 -11 -14 2 -39 9 -17 16 -33 16 -36 0 -3 -22 3
-49 14 -40 15 -52 17 -66 6 -15 -11 -14 -16 15 -67 39 -66 34 -61 53 -53 15 5
15 9 1 36 -9 16 -14 31 -12 33 2 2 25 -4 51 -13 66 -24 74 -11 40 66 -27 65
-30 67 -51 53z"/>
<path d="M6490 8445 c-30 -53 -32 -75 -7 -75 7 0 26 27 44 59 26 49 29 60 16
65 -8 3 -16 6 -18 6 -2 0 -18 -25 -35 -55z"/>
<path d="M6561 8413 c-16 -79 -14 -88 15 -102 29 -13 30 -12 97 40 46 36 47
38 26 49 -18 10 -27 7 -61 -20 -21 -18 -41 -30 -43 -28 -2 2 1 23 7 46 11 46
6 72 -15 72 -9 0 -18 -20 -26 -57z"/>
<path d="M4127 8428 c-48 -29 -55 -56 -25 -102 31 -49 50 -52 103 -21 52 30
56 48 23 106 -25 45 -45 49 -101 17z m73 -48 c11 -27 11 -32 -6 -45 -27 -20
-39 -18 -58 10 -21 33 -21 38 11 57 33 19 37 18 53 -22z"/>
<path d="M5220 8370 c-275 -35 -511 -122 -740 -274 -144 -95 -340 -291 -438
-439 -254 -381 -341 -837 -241 -1267 68 -297 191 -529 408 -769 l63 -71 -49 0
c-50 0 -50 0 -115 78 -221 261 -348 549 -393 887 -8 61 -15 114 -15 118 0 5
-19 -2 -41 -15 -56 -31 -91 -85 -91 -140 0 -24 25 -173 55 -333 94 -489 125
-626 142 -646 16 -17 16 -18 -6 -23 -13 -3 -103 -24 -199 -47 -96 -23 -188
-42 -205 -43 l-30 -1 -63 310 c-34 171 -98 495 -142 720 l-78 410 21 22 c53
52 420 247 621 330 l70 28 42 120 c23 66 47 134 54 151 15 35 8 64 -14 64 -30
0 -339 -134 -551 -239 -221 -110 -418 -231 -507 -313 l-47 -43 43 -230 c24
-126 58 -309 76 -405 18 -96 70 -364 116 -595 51 -259 80 -423 74 -429 -5 -5
-49 -25 -97 -45 -69 -28 -88 -41 -88 -56 0 -17 6 -20 50 -19 28 1 165 19 305
42 745 120 1565 192 2190 192 640 0 1480 -75 2248 -200 274 -45 290 -46 299
-24 9 23 -13 39 -109 74 -48 18 -89 38 -92 45 -2 6 33 200 79 431 104 522 215
1112 222 1180 l5 51 -83 65 c-173 135 -433 278 -769 421 -237 101 -245 104
-264 88 -14 -12 -14 -17 0 -49 9 -21 35 -91 58 -156 l42 -119 159 -71 c190
-85 349 -168 463 -242 69 -45 82 -58 82 -81 0 -71 -266 -1402 -283 -1420 -10
-10 -24 -9 -67 2 -224 60 -727 155 -823 155 -20 0 -37 3 -37 6 0 3 36 47 81
97 441 501 541 1186 262 1787 -148 319 -448 622 -769 776 -120 57 -272 107
-410 134 -126 24 -359 34 -474 20z m260 -251 c88 -64 231 -181 264 -218 20
-22 20 -22 -39 -141 -44 -89 -65 -122 -84 -130 -61 -24 -205 -62 -330 -86
l-136 -27 -58 64 c-32 35 -88 96 -123 135 l-64 72 35 82 c31 73 111 233 134
269 10 16 149 39 246 40 l70 1 85 -61z m379 -15 c168 -56 341 -155 480 -275
40 -35 41 -36 21 -54 -24 -21 -12 -26 -277 101 -162 77 -202 101 -265 156 -40
36 -86 78 -103 92 l-30 27 35 -6 c19 -4 82 -22 139 -41z m-1029 -130 c-27 -61
-52 -123 -56 -138 -5 -21 -57 -66 -226 -192 -120 -91 -225 -167 -232 -170 -14
-5 -135 12 -144 20 -6 7 73 117 145 201 67 79 180 178 278 243 64 43 276 155
282 149 1 -2 -20 -53 -47 -113z m1241 -164 c79 -38 142 -69 139 -69 -3 0 -57
15 -120 33 l-115 34 -18 -20 c-48 -56 -130 -141 -126 -132 8 22 94 224 95 224
1 0 66 -31 145 -70z m-1176 -206 c44 -59 82 -111 84 -118 2 -6 -34 23 -80 64
-46 40 -91 80 -100 88 -15 11 -29 7 -110 -33 -52 -26 -89 -42 -84 -37 13 15
199 142 205 142 3 -1 41 -48 85 -106z m1655 -5 c102 -138 184 -303 227 -459
41 -147 48 -147 -109 3 l-144 135 -46 179 -46 178 21 23 c11 12 24 22 29 22 4
0 35 -36 68 -81z m-655 -259 c85 -90 155 -170 155 -176 0 -25 -157 -433 -174
-451 -1 -1 -114 -23 -251 -48 -138 -25 -260 -47 -271 -50 -27 -6 -175 119
-310 262 l-92 96 95 195 c51 108 95 197 96 198 1 1 47 10 102 19 114 19 333
74 415 104 30 11 61 19 67 18 7 -1 82 -76 168 -167z m-1674 -6 l57 -6 5 -47
c4 -25 14 -122 23 -216 l17 -170 -36 -130 c-37 -136 -107 -440 -107 -468 0
-14 -95 -77 -117 -77 -12 0 -56 133 -80 245 -22 100 -25 446 -5 540 18 80 67
243 92 301 20 46 21 46 58 41 20 -4 62 -9 93 -13z m2390 -341 c232 -220 219
-202 219 -314 l0 -93 -116 -153 c-64 -84 -122 -157 -128 -163 -16 -13 -221
-47 -309 -52 l-67 -3 -100 219 -101 219 55 126 c30 69 71 171 91 226 20 55 39
102 41 104 3 4 184 34 239 40 6 0 85 -70 176 -156z m-1616 -271 c71 -70 151
-146 177 -168 l47 -39 -20 -245 c-11 -134 -21 -246 -23 -247 -9 -9 -241 -56
-368 -74 l-147 -22 -170 164 c-168 162 -170 164 -164 199 14 82 74 339 104
445 l31 115 201 0 201 0 131 -128z m968 -308 c80 -174 100 -220 91 -211 -4 4
-48 66 -99 139 l-91 133 -90 6 c-49 4 -141 8 -204 9 l-115 2 210 38 c116 21
214 37 219 36 6 -1 41 -70 79 -152z m642 -363 l18 -59 -54 -78 c-60 -88 -233
-268 -294 -306 -39 -25 -42 -25 -165 -17 -69 5 -173 11 -232 15 l-108 6 1 56
0 57 185 155 c102 85 193 161 204 168 10 8 68 18 128 23 60 5 142 16 183 23
120 22 113 24 134 -43z m-1174 -254 l184 -83 3 -52 3 -52 -308 0 c-169 0 -391
-5 -492 -10 -101 -6 -185 -10 -186 -8 -5 5 31 173 39 186 4 7 24 12 46 12 50
0 316 46 405 69 39 11 82 20 96 20 14 1 109 -36 210 -82z"/>
<path d="M4002 8340 c-49 -35 -53 -57 -16 -106 32 -42 58 -43 103 -5 43 35 34
62 -10 30 -35 -24 -55 -20 -71 17 -10 21 -9 27 2 34 41 24 55 39 44 50 -7 7
-22 2 -52 -20z"/>
<path d="M6696 8319 c-52 -37 -56 -43 -42 -57 12 -13 18 -13 30 -2 22 17 70
-13 61 -39 -5 -17 20 -50 30 -39 3 2 13 35 22 72 l18 67 -25 19 c-14 11 -28
20 -31 20 -3 0 -32 -19 -63 -41z m77 -16 c-11 -32 -15 -34 -30 -22 -13 11 -13
14 3 26 25 18 35 16 27 -4z"/>
<path d="M2625 6931 c-21 -4 -31 -13 -33 -29 -3 -22 0 -24 42 -26 32 -2 29
-22 -6 -34 l-33 -11 40 2 c36 2 40 5 43 30 3 24 0 27 -27 27 -38 0 -50 17 -16
26 14 3 25 10 25 15 0 5 -1 8 -2 8 -2 -1 -16 -4 -33 -8z"/>
<path d="M8140 6921 c0 -5 9 -11 20 -13 31 -5 28 -22 -6 -28 -39 -7 -47 -46
-10 -56 13 -3 33 -4 43 -1 13 3 9 6 -14 12 -43 10 -42 21 2 29 25 5 35 12 35
26 0 21 -4 25 -42 34 -16 3 -28 2 -28 -3z"/>
<path d="M7424 6826 c-15 -12 -19 -27 -19 -75 0 -36 5 -65 13 -73 8 -8 38 -13
77 -13 39 0 69 5 77 13 8 8 13 37 13 73 0 74 -15 89 -90 89 -28 0 -60 -6 -71
-14z m144 -64 c2 -31 -2 -60 -9 -68 -14 -17 -110 -19 -127 -2 -13 13 -17 110
-5 122 4 4 37 6 73 4 l65 -3 3 -53z"/>
<path d="M7450 6755 c0 -25 5 -45 10 -45 6 0 10 7 10 15 0 8 6 15 14 15 7 0
19 -7 26 -15 7 -8 17 -15 23 -15 8 0 7 4 0 11 -8 8 -9 16 -1 29 19 30 3 50
-42 50 l-40 0 0 -45z m70 15 c0 -5 -11 -10 -25 -10 -14 0 -25 5 -25 10 0 6 11
10 25 10 14 0 25 -4 25 -10z"/>
<path d="M677 6688 c-351 -1297 -160 -2674 528 -3813 775 -1284 2093 -2144
3571 -2330 192 -24 187 -29 108 90 -37 55 -68 101 -69 103 -1 2 -58 11 -126
22 -860 132 -1666 501 -2335 1070 -152 130 -439 421 -562 570 -562 686 -916
1479 -1036 2330 -39 275 -49 458 -43 772 8 389 37 628 123 996 l26 113 -69
104 c-37 58 -71 105 -74 105 -3 0 -22 -60 -42 -132z"/>
<path d="M2648 6785 c-10 -17 12 -109 24 -97 6 6 5 26 -4 58 -8 27 -17 44 -20
39z"/>
<path d="M8096 6768 c-20 -64 -7 -92 39 -86 23 2 31 10 38 35 14 47 4 63 -38
63 -20 0 -37 -6 -39 -12z m53 -7 c21 -13 6 -61 -19 -61 -15 0 -20 7 -20 28 0
40 12 50 39 33z"/>
<path d="M2715 6608 l8 -32 -36 27 c-20 15 -38 24 -41 19 -2 -4 0 -29 6 -55
11 -52 31 -56 21 -4 l-6 32 30 -27 c33 -32 57 -37 49 -10 -2 9 -7 32 -11 50
-4 17 -11 32 -17 32 -6 0 -7 -13 -3 -32z"/>
<path d="M8080 6631 c0 -5 9 -11 20 -13 31 -5 28 -22 -6 -28 -39 -7 -47 -46
-10 -56 13 -3 33 -4 43 -1 13 3 9 6 -14 12 -43 10 -42 21 2 29 25 5 35 12 35
26 0 21 -4 25 -42 34 -16 3 -28 2 -28 -3z"/>
<path d="M2713 6493 c-28 -5 -34 -24 -22 -67 10 -38 36 -47 69 -26 11 7 7 10
-18 10 -31 0 -33 2 -30 33 2 24 8 33 26 35 12 2 20 8 17 13 -4 5 -9 8 -13 8
-4 -1 -17 -4 -29 -6z"/>
<path d="M8050 6481 c0 -5 9 -11 20 -13 31 -5 28 -22 -6 -28 -39 -7 -47 -46
-10 -56 13 -3 33 -4 43 -1 13 3 9 6 -14 12 -43 10 -42 21 2 29 25 5 35 12 35
26 0 21 -4 25 -42 34 -16 3 -28 2 -28 -3z"/>
<path d="M2745 6340 c-27 -5 -30 -9 -27 -39 6 -60 13 -69 50 -59 40 11 42 26
2 20 -38 -5 -39 11 -2 25 l27 11 -27 1 c-40 2 -44 19 -6 29 39 10 25 21 -17
12z"/>
<path d="M4960 5093 c0 -55 26 -654 30 -691 0 -1 134 0 298 3 l297 6 3 100 3
99 -73 3 c-40 1 -125 2 -188 2 l-115 0 -6 255 c-3 140 -7 265 -8 278 -1 22 -4
22 -121 22 l-120 0 0 -77z"/>
<path d="M5667 5005 c-4 -93 -7 -237 -7 -320 0 -140 2 -155 23 -196 39 -72 80
-87 292 -104 224 -18 287 -19 328 -1 44 18 81 64 95 117 14 51 75 599 69 606
-3 2 -58 10 -122 17 -83 9 -118 9 -120 2 -2 -6 -13 -123 -24 -259 -11 -136
-25 -257 -31 -267 -6 -11 -18 -20 -28 -21 -37 -2 -120 2 -170 7 -85 10 -84 5
-67 309 8 142 13 260 11 262 -2 2 -57 7 -123 10 l-120 6 -6 -168z"/>
<path d="M4692 5150 c-45 -4 -85 -9 -87 -12 -2 -2 5 -118 16 -257 11 -139 18
-263 15 -276 -8 -30 -20 -34 -144 -47 -101 -11 -105 -11 -122 9 -12 16 -23 84
-45 283 -28 253 -29 261 -49 256 -12 -2 -64 -10 -116 -16 -52 -7 -98 -15 -102
-19 -4 -3 11 -136 32 -296 46 -337 60 -378 134 -414 53 -26 78 -26 307 -1 224
25 250 32 293 75 56 55 59 91 41 403 -8 149 -15 283 -15 297 0 28 -2 28 -158
15z"/>
<path d="M6541 4728 c-23 -200 -45 -370 -47 -379 -4 -13 13 -19 98 -32 56 -9
104 -15 105 -13 2 1 15 83 29 182 14 98 28 181 30 183 4 4 63 -122 104 -221
22 -55 25 -57 72 -68 27 -5 55 -10 62 -10 7 0 59 50 116 110 56 61 104 110
105 108 2 -2 -12 -82 -31 -178 -18 -96 -34 -180 -34 -186 0 -13 189 -59 199
-48 7 9 162 708 161 730 0 6 -44 22 -97 34 l-98 23 -163 -168 c-89 -93 -164
-166 -165 -164 -2 2 -36 81 -76 174 -40 94 -82 190 -94 215 l-22 45 -80 12
c-44 6 -91 12 -106 12 l-25 1 -43 -362z"/>
<path d="M3761 5025 c-147 -28 -532 -113 -538 -119 -6 -5 46 -201 53 -200 5 1
60 14 122 29 62 15 115 26 117 23 2 -2 27 -121 55 -264 28 -142 52 -264 54
-270 3 -7 38 -4 111 12 58 12 108 24 111 26 2 3 -17 125 -41 272 -25 147 -43
271 -41 275 3 5 55 16 115 26 59 9 114 21 120 24 11 7 4 93 -15 179 -6 28 -10
28 -223 -13z"/>
<path d="M4965 4220 c-103 -5 -140 -11 -180 -29 -59 -26 -109 -72 -136 -123
-16 -32 -25 -37 -61 -42 -24 -3 -119 -15 -213 -26 -304 -37 -607 -97 -875
-175 -169 -49 -194 -62 -198 -102 -5 -53 13 -55 199 -27 90 14 173 23 184 20
11 -3 44 -42 74 -87 157 -238 521 -511 1076 -807 193 -102 505 -250 546 -259
33 -6 173 55 454 197 478 244 837 481 1050 695 89 89 128 139 189 238 12 19
25 27 45 27 26 0 263 -34 323 -46 19 -4 33 1 47 15 49 49 22 72 -149 124 -269
83 -627 155 -945 191 -238 27 -222 24 -235 56 -16 39 -98 115 -146 135 -26 11
-90 20 -194 25 -174 10 -657 10 -855 0z m275 -195 c0 -9 -9 -15 -25 -15 -24 0
-25 -2 -25 -75 0 -68 -2 -75 -20 -75 -18 0 -20 7 -20 75 0 73 -1 75 -25 75
-16 0 -25 6 -25 15 0 12 14 15 70 15 56 0 70 -3 70 -15z m80 -75 c0 -83 -1
-90 -20 -90 -19 0 -20 7 -20 90 0 83 1 90 20 90 19 0 20 -7 20 -90z m181 69
c14 -22 11 -66 -7 -83 -9 -9 -32 -16 -55 -16 -37 0 -39 -2 -39 -30 0 -23 -4
-30 -20 -30 -19 0 -20 7 -20 91 l0 91 66 -4 c42 -3 69 -9 75 -19z m148 15 c44
-9 28 -24 -25 -24 -33 0 -44 -4 -44 -15 0 -17 7 -20 62 -30 29 -4 39 -12 44
-30 14 -58 -21 -82 -102 -69 -60 9 -55 22 9 26 44 3 52 6 52 22 0 16 -11 22
-49 30 -52 12 -62 22 -52 61 8 31 44 41 105 29z m871 -240 c219 -21 226 -22
237 -47 16 -34 1 -57 -83 -136 -156 -145 -404 -316 -702 -483 -130 -73 -559
-288 -574 -288 -4 0 -8 12 -8 28 0 25 -10 31 -118 81 -264 121 -668 348 -872
489 -117 81 -271 206 -328 264 -36 37 -41 47 -29 57 14 11 340 51 423 51 l41
0 -4 -52 c-7 -93 17 -117 265 -265 144 -86 546 -293 600 -308 l22 -6 0 237 0
237 282 -6 c258 -5 287 -4 331 13 66 25 112 62 143 116 l27 46 96 -6 c53 -4
166 -13 251 -22z"/>
<path d="M5400 3981 c0 -29 3 -31 36 -31 33 0 35 2 32 28 -2 22 -8 28 -35 30
-31 3 -33 1 -33 -27z"/>
<path d="M4335 2770 c-14 -62 23 -150 79 -188 18 -12 35 -22 39 -22 13 0 7 77
-8 121 -14 40 -78 119 -96 119 -4 0 -10 -13 -14 -30z"/>
<path d="M6393 2756 c-42 -48 -63 -101 -63 -160 0 -41 4 -43 46 -17 39 24 71
75 80 128 7 45 -1 93 -15 93 -5 0 -27 -20 -48 -44z"/>
<path d="M4534 2673 c-26 -51 -25 -138 1 -183 26 -44 39 -47 54 -13 24 53 26
135 3 186 -12 26 -25 47 -30 47 -5 0 -18 -17 -28 -37z"/>
<path d="M6205 2680 c-25 -49 -29 -111 -11 -174 10 -35 22 -56 29 -54 21 7 57
91 57 133 0 43 -32 125 -49 125 -6 0 -17 -13 -26 -30z"/>
<path d="M4664 2528 c-25 -46 -23 -123 4 -175 12 -23 27 -45 33 -49 39 -24 54
127 20 202 -26 56 -37 61 -57 22z"/>
<path d="M6079 2523 c-38 -61 -37 -223 1 -223 16 0 58 72 66 113 7 41 -11 120
-31 137 -10 8 -19 1 -36 -27z"/>
<path d="M4320 2534 c0 -28 82 -104 124 -114 41 -9 106 -3 106 11 0 19 -64 79
-104 98 -52 26 -126 29 -126 5z"/>
<path d="M6395 2541 c-68 -17 -166 -96 -150 -121 12 -19 109 -5 151 20 37 23
87 88 78 102 -6 9 -37 9 -79 -1z"/>
<path d="M4813 2415 c-16 -40 -7 -111 20 -157 27 -47 71 -83 87 -73 31 19 -8
153 -60 209 -36 38 -39 39 -47 21z"/>
<path d="M5924 2388 c-34 -41 -50 -80 -58 -138 -9 -64 3 -79 42 -51 58 41 92
124 77 190 -8 40 -26 39 -61 -1z"/>
<path d="M4478 2362 c-21 -2 -38 -7 -38 -11 0 -18 81 -80 117 -90 47 -14 59
-14 107 0 l38 11 -28 29 c-41 43 -122 69 -196 61z"/>
<path d="M6232 2358 c-50 -8 -90 -29 -121 -61 l-23 -26 42 -11 c47 -13 98 -7
144 17 30 15 76 60 76 73 0 12 -71 16 -118 8z"/>
<path d="M4992 2275 c7 -59 48 -119 98 -145 59 -30 73 -27 65 13 -11 51 -56
115 -104 147 -25 17 -49 30 -54 30 -5 0 -7 -19 -5 -45z"/>
<path d="M5765 2304 c-63 -32 -112 -96 -129 -168 -7 -28 -6 -29 25 -22 73 14
144 107 137 176 -3 30 -3 30 -33 14z"/>
<path d="M4678 2208 c-21 -6 -38 -14 -38 -18 0 -20 65 -60 115 -70 57 -12 84
-8 123 17 23 14 23 15 6 34 -19 21 -103 50 -143 48 -14 -1 -43 -6 -63 -11z"/>
<path d="M5366 2176 c-18 -47 -17 -46 -109 -62 l-39 -7 46 -41 45 -41 -10 -54
c-6 -29 -8 -55 -6 -57 3 -3 25 5 51 18 l46 22 0 133 c0 73 -2 133 -4 133 -2 0
-11 -20 -20 -44z"/>
<path d="M5978 2200 c-32 -10 -88 -42 -88 -51 0 -12 80 -39 116 -39 54 0 144
44 144 71 0 23 -115 36 -172 19z"/>
<path d="M4999 2101 c-46 -9 -104 -43 -104 -61 0 -8 19 -20 45 -27 68 -21 134
-4 190 48 l24 24 -39 12 c-45 13 -65 14 -116 4z"/>
<path d="M5683 2099 c-41 -12 -41 -20 -3 -53 55 -46 136 -55 206 -24 19 9 22
14 12 25 -36 43 -152 71 -215 52z"/>
</g>
</svg>
