<svg width="84" height="84" viewBox="0 0 84 84" fill="none" xmlns="http://www.w3.org/2000/svg">
<g id="icon-like">
<rect id="Rectangle 882" width="84" height="84" rx="19.1538" fill="#FEFBFF"/>
<path id="Vector" d="M33 60H27.6C26.6452 60 25.7295 59.6207 25.0544 58.9456C24.3793 58.2705 24 57.3548 24 56.4V43.8C24 42.8452 24.3793 41.9295 25.0544 41.2544C25.7295 40.5793 26.6452 40.2 27.6 40.2H33M45.6 36.6V29.4C45.6 27.9678 45.0311 26.5943 44.0184 25.5816C43.0057 24.5689 41.6322 24 40.2 24L33 40.2V60H53.304C54.1722 60.0098 55.0147 59.7055 55.6762 59.1432C56.3378 58.5809 56.7738 57.7984 56.904 56.94L59.388 40.74C59.4663 40.224 59.4315 39.6972 59.286 39.1961C59.1405 38.6949 58.8878 38.2313 58.5453 37.8375C58.2029 37.4437 57.7789 37.1291 57.3028 36.9154C56.8267 36.7017 56.3098 36.5941 55.788 36.6H45.6Z" stroke="url(#paint0_linear_7807_271)" stroke-width="3.55714" stroke-linecap="round" stroke-linejoin="round"/>
</g>
<defs>
<linearGradient id="paint0_linear_7807_271" x1="53.9373" y1="28.86" x2="30.3068" y2="55.6659" gradientUnits="userSpaceOnUse">
<stop stop-color="#68D250"/>
<stop offset="1" stop-color="#2E9A18"/>
</linearGradient>
</defs>
</svg>
