<svg width="30" height="30" viewBox="0 0 30 30" fill="none" xmlns="http://www.w3.org/2000/svg">
<g id="instagram">
<path id="Vector" d="M22 1H8C4.13401 1 1 4.13401 1 8V22C1 25.866 4.13401 29 8 29H22C25.866 29 29 25.866 29 22V8C29 4.13401 25.866 1 22 1Z" stroke="#EDEAEF" stroke-width="2" stroke-linecap="round" stroke-linejoin="round"/>
<path id="Vector_2" d="M20.5999 14.1179C20.7727 15.2831 20.5736 16.473 20.0311 17.5186C19.4886 18.5641 18.6303 19.4119 17.5782 19.9415C16.526 20.471 15.3337 20.6554 14.1708 20.4682C13.0079 20.2811 11.9335 19.732 11.1007 18.8992C10.2678 18.0663 9.71871 16.992 9.53158 15.829C9.34445 14.6661 9.52877 13.4738 10.0583 12.4217C10.5879 11.3695 11.4357 10.5112 12.4813 9.96867C13.5268 9.42617 14.7167 9.22716 15.8819 9.39993C17.0704 9.57617 18.1707 10.13 19.0203 10.9796C19.8698 11.8291 20.4236 12.9294 20.5999 14.1179Z" stroke="#EDEAEF" stroke-width="2" stroke-linecap="round" stroke-linejoin="round"/>
<path id="Vector_3" d="M22.6997 7.29883H22.7145" stroke="#EDEAEF" stroke-width="2" stroke-linecap="round" stroke-linejoin="round"/>
</g>
</svg>
