<svg width="280" height="60" viewBox="0 0 280 60" fill="none" xmlns="http://www.w3.org/2000/svg">
<g id="logo-tulum-tips">
<g id="TULUMTIPS">
<path d="M28.9989 36.3641V10.9095H34.7822V36.3641H28.9989ZM20.4055 11.7241V6.63315H43.3757V11.7241H20.4055ZM60.1716 37.1379C57.4021 37.1379 55.0671 36.6084 53.1665 35.5495C51.2658 34.4906 49.8132 33.0109 48.8086 31.1103C47.8312 29.1825 47.3425 26.9289 47.3425 24.3495V6.63315H53.1257V24.6753C53.1257 26.0872 53.3972 27.3362 53.9403 28.4223C54.4833 29.4812 55.2707 30.3093 56.3025 30.9066C57.3614 31.4768 58.6511 31.7619 60.1716 31.7619C61.6649 31.7619 62.9274 31.4768 63.9592 30.9066C65.0181 30.3093 65.8055 29.4812 66.3214 28.4223C66.8644 27.3633 67.1359 26.1144 67.1359 24.6753V6.63315H72.9192V24.3495C72.9192 26.9289 72.4305 29.1825 71.453 31.1103C70.5027 33.0109 69.0773 34.4906 67.1766 35.5495C65.276 36.6084 62.941 37.1379 60.1716 37.1379ZM79.6911 36.3641V6.63315H85.4743V36.3641H79.6911ZM84.6598 36.3641V31.2732H97.4889V36.3641H84.6598ZM113.547 37.1379C110.777 37.1379 108.442 36.6084 106.541 35.5495C104.641 34.4906 103.188 33.0109 102.184 31.1103C101.206 29.1825 100.717 26.9289 100.717 24.3495V6.63315H106.501V24.6753C106.501 26.0872 106.772 27.3362 107.315 28.4223C107.858 29.4812 108.646 30.3093 109.677 30.9066C110.736 31.4768 112.026 31.7619 113.547 31.7619C115.04 31.7619 116.302 31.4768 117.334 30.9066C118.393 30.3093 119.181 29.4812 119.696 28.4223C120.239 27.3633 120.511 26.1144 120.511 24.6753V6.63315H126.294V24.3495C126.294 26.9289 125.806 29.1825 124.828 31.1103C123.878 33.0109 122.452 34.4906 120.552 35.5495C118.651 36.6084 116.316 37.1379 113.547 37.1379ZM133.066 36.3641V6.63315H140.967L148.42 24.3902H149.153L156.566 6.63315H164.589V36.3641H158.846V10.991L159.58 11.0724L151.556 30.2957H145.651L137.587 11.0724L138.361 10.991V36.3641H133.066Z" fill="#3A3B39"/>
<path d="M177.789 36.3641V10.9095H183.572V36.3641H177.789ZM169.195 11.7241V6.63315H192.166V11.7241H169.195ZM196.864 36.3641V6.63315H202.647V36.3641H196.864ZM215.035 27.2412V22.2317H220.818C221.986 22.2317 222.963 22.0009 223.751 21.5393C224.565 21.0778 225.176 20.4397 225.583 19.6252C226.018 18.8106 226.235 17.8739 226.235 16.815C226.235 15.7561 226.018 14.8193 225.583 14.0048C225.176 13.1902 224.565 12.5658 223.751 12.1313C222.963 11.6698 221.986 11.439 220.818 11.439H215.035V6.42951H220.329C222.827 6.42951 224.945 6.83678 226.683 7.65133C228.448 8.46587 229.792 9.63339 230.715 11.1539C231.638 12.6472 232.1 14.4256 232.1 16.4892V17.1408C232.1 19.2043 231.638 20.9963 230.715 22.5168C229.792 24.0101 228.448 25.1776 226.683 26.0193C224.945 26.8339 222.827 27.2412 220.329 27.2412H215.035ZM210.066 36.3641V6.42951H215.849V36.3641H210.066ZM246.895 37.1379C244.261 37.1379 242.035 36.717 240.215 35.8753C238.423 35.0336 237.052 33.8797 236.102 32.4135C235.152 30.9202 234.677 29.2368 234.677 27.3633H240.338C240.338 28.1507 240.555 28.9246 240.989 29.6848C241.424 30.4179 242.116 31.0152 243.066 31.4768C244.044 31.9384 245.32 32.1692 246.895 32.1692C248.307 32.1692 249.488 31.9655 250.438 31.5583C251.388 31.151 252.094 30.6215 252.556 29.9699C253.017 29.2911 253.248 28.5309 253.248 27.6892C253.248 26.6303 252.8 25.7886 251.904 25.1641C251.008 24.5124 249.623 24.1052 247.75 23.9422L245.143 23.7386C242.293 23.4942 240.012 22.6118 238.301 21.0913C236.618 19.5437 235.776 17.5073 235.776 14.9822C235.776 13.0816 236.224 11.4525 237.12 10.095C238.016 8.71024 239.265 7.65133 240.867 6.91824C242.496 6.15799 244.397 5.77787 246.569 5.77787C248.823 5.77787 250.764 6.17157 252.393 6.95896C254.022 7.74636 255.285 8.85957 256.181 10.2986C257.077 11.7105 257.525 13.3803 257.525 15.3081H251.863C251.863 14.4935 251.66 13.7468 251.253 13.0681C250.872 12.3621 250.289 11.8055 249.501 11.3982C248.741 10.9638 247.764 10.7466 246.569 10.7466C245.429 10.7466 244.478 10.9367 243.718 11.3168C242.958 11.6969 242.388 12.2128 242.007 12.8644C241.627 13.5161 241.437 14.222 241.437 14.9822C241.437 15.9054 241.777 16.7199 242.455 17.4259C243.134 18.1047 244.207 18.4984 245.673 18.607L248.279 18.8513C250.397 19.0142 252.257 19.4622 253.859 20.1953C255.461 20.9284 256.696 21.9195 257.565 23.1684C258.461 24.4174 258.909 25.9243 258.909 27.6892C258.909 29.5626 258.421 31.2189 257.443 32.6579C256.466 34.0698 255.067 35.1694 253.248 35.9568C251.456 36.7442 249.338 37.1379 246.895 37.1379Z" fill="url(#paint0_linear_7805_6)"/>
</g>
<path id="APOSTAS ESPORTIVAS" d="M80.6038 57.4769L83.139 50.0442H85.5012L88.1078 57.4769H86.6212L84.4118 51.0318L84.931 51.2558H83.6583L84.1878 51.0318L82.0496 57.4769H80.6038ZM82.3754 55.5016L82.8336 54.2798H85.8474L86.2954 55.5016H82.3754ZM90.454 55.1962V53.9438H91.8999C92.1917 53.9438 92.4361 53.8861 92.633 53.7707C92.8366 53.6553 92.9893 53.4958 93.0911 53.2922C93.1997 53.0885 93.2541 52.8543 93.2541 52.5896C93.2541 52.3249 93.1997 52.0907 93.0911 51.8871C92.9893 51.6834 92.8366 51.5273 92.633 51.4187C92.4361 51.3033 92.1917 51.2456 91.8999 51.2456H90.454V49.9933H91.7777C92.4022 49.9933 92.9316 50.0951 93.3661 50.2987C93.8073 50.5023 94.1433 50.7942 94.3741 51.1743C94.6048 51.5477 94.7202 51.9923 94.7202 52.5082V52.6711C94.7202 53.187 94.6048 53.635 94.3741 54.0151C94.1433 54.3884 93.8073 54.6803 93.3661 54.8907C92.9316 55.0944 92.4022 55.1962 91.7777 55.1962H90.454ZM89.2119 57.4769V49.9933H90.6577V57.4769H89.2119ZM99.4059 57.6704C98.7339 57.6704 98.1502 57.5516 97.6547 57.314C97.1659 57.0764 96.7587 56.7676 96.4328 56.3874C96.1138 56.0005 95.8728 55.5865 95.7099 55.1453C95.5538 54.6973 95.4758 54.2662 95.4758 53.8522V53.6282C95.4758 53.1734 95.5572 52.722 95.7201 52.274C95.883 51.8192 96.1274 51.4085 96.4532 51.042C96.7858 50.6754 97.1965 50.3836 97.6852 50.1663C98.1739 49.9423 98.7475 49.8303 99.4059 49.8303C100.058 49.8303 100.628 49.9423 101.116 50.1663C101.605 50.3836 102.012 50.6754 102.338 51.042C102.671 51.4085 102.919 51.8192 103.082 52.274C103.244 52.722 103.326 53.1734 103.326 53.6282V53.8522C103.326 54.2662 103.244 54.6973 103.082 55.1453C102.925 55.5865 102.684 56.0005 102.359 56.3874C102.04 56.7676 101.632 57.0764 101.137 57.314C100.648 57.5516 100.071 57.6704 99.4059 57.6704ZM99.4059 56.3264C99.7861 56.3264 100.125 56.2585 100.424 56.1227C100.73 55.987 100.988 55.8003 101.198 55.5627C101.415 55.3184 101.578 55.0434 101.687 54.738C101.802 54.4257 101.86 54.0965 101.86 53.7504C101.86 53.377 101.802 53.0342 101.687 52.722C101.578 52.4097 101.415 52.1382 101.198 51.9074C100.988 51.6767 100.73 51.4968 100.424 51.3678C100.119 51.2388 99.7793 51.1743 99.4059 51.1743C99.0258 51.1743 98.683 51.2388 98.3776 51.3678C98.0721 51.4968 97.8108 51.6767 97.5936 51.9074C97.3831 52.1382 97.2202 52.4097 97.1048 52.722C96.9962 53.0342 96.9419 53.377 96.9419 53.7504C96.9419 54.0965 96.9962 54.4257 97.1048 54.738C97.2202 55.0434 97.3831 55.3184 97.5936 55.5627C97.8108 55.8003 98.0721 55.987 98.3776 56.1227C98.683 56.2585 99.0258 56.3264 99.4059 56.3264ZM107.219 57.6704C106.56 57.6704 106.004 57.5651 105.549 57.3547C105.101 57.1443 104.758 56.8558 104.521 56.4893C104.283 56.1159 104.164 55.6951 104.164 55.2267H105.579C105.579 55.4236 105.634 55.617 105.742 55.8071C105.851 55.9904 106.024 56.1397 106.262 56.2551C106.506 56.3705 106.825 56.4282 107.219 56.4282C107.572 56.4282 107.867 56.3773 108.105 56.2754C108.342 56.1736 108.519 56.0413 108.634 55.8784C108.749 55.7087 108.807 55.5186 108.807 55.3082C108.807 55.0434 108.695 54.833 108.471 54.6769C108.247 54.514 107.901 54.4122 107.433 54.3714L106.781 54.3205C106.068 54.2594 105.498 54.0388 105.07 53.6587C104.65 53.2718 104.439 52.7627 104.439 52.1314C104.439 51.6563 104.551 51.249 104.775 50.9096C104.999 50.5634 105.311 50.2987 105.712 50.1154C106.119 49.9254 106.594 49.8303 107.137 49.8303C107.701 49.8303 108.186 49.9288 108.593 50.1256C109.001 50.3225 109.316 50.6008 109.54 50.9605C109.764 51.3135 109.876 51.731 109.876 52.2129H108.461C108.461 52.0093 108.41 51.8226 108.308 51.6529C108.213 51.4764 108.067 51.3373 107.87 51.2354C107.68 51.1268 107.436 51.0725 107.137 51.0725C106.852 51.0725 106.615 51.12 106.425 51.2151C106.234 51.3101 106.092 51.4391 105.997 51.602C105.902 51.7649 105.854 51.9414 105.854 52.1314C105.854 52.3622 105.939 52.5659 106.109 52.7423C106.279 52.912 106.547 53.0105 106.913 53.0376L107.565 53.0987C108.094 53.1394 108.559 53.2514 108.96 53.4347C109.36 53.618 109.669 53.8657 109.886 54.178C110.11 54.4902 110.222 54.867 110.222 55.3082C110.222 55.7765 110.1 56.1906 109.856 56.5504C109.611 56.9033 109.262 57.1782 108.807 57.3751C108.359 57.5719 107.83 57.6704 107.219 57.6704ZM112.812 57.4769V51.1133H114.257V57.4769H112.812ZM110.663 51.3169V50.0442H116.406V51.3169H110.663ZM116.2 57.4769L118.736 50.0442H121.098L123.704 57.4769H122.218L120.008 51.0318L120.528 51.2558H119.255L119.784 51.0318L117.646 57.4769H116.2ZM117.972 55.5016L118.43 54.2798H121.444L121.892 55.5016H117.972ZM127.294 57.6704C126.636 57.6704 126.079 57.5651 125.624 57.3547C125.176 57.1443 124.833 56.8558 124.596 56.4893C124.358 56.1159 124.239 55.6951 124.239 55.2267H125.655C125.655 55.4236 125.709 55.617 125.818 55.8071C125.926 55.9904 126.099 56.1397 126.337 56.2551C126.581 56.3705 126.9 56.4282 127.294 56.4282C127.647 56.4282 127.942 56.3773 128.18 56.2754C128.417 56.1736 128.594 56.0413 128.709 55.8784C128.825 55.7087 128.882 55.5186 128.882 55.3082C128.882 55.0434 128.77 54.833 128.546 54.6769C128.322 54.514 127.976 54.4122 127.508 54.3714L126.856 54.3205C126.143 54.2594 125.573 54.0388 125.146 53.6587C124.725 53.2718 124.514 52.7627 124.514 52.1314C124.514 51.6563 124.626 51.249 124.85 50.9096C125.074 50.5634 125.387 50.2987 125.787 50.1154C126.194 49.9254 126.67 49.8303 127.213 49.8303C127.776 49.8303 128.261 49.9288 128.669 50.1256C129.076 50.3225 129.391 50.6008 129.615 50.9605C129.839 51.3135 129.951 51.731 129.951 52.2129H128.536C128.536 52.0093 128.485 51.8226 128.383 51.6529C128.288 51.4764 128.143 51.3373 127.946 51.2354C127.756 51.1268 127.511 51.0725 127.213 51.0725C126.927 51.0725 126.69 51.12 126.5 51.2151C126.31 51.3101 126.167 51.4391 126.072 51.602C125.977 51.7649 125.93 51.9414 125.93 52.1314C125.93 52.3622 126.015 52.5659 126.184 52.7423C126.354 52.912 126.622 53.0105 126.989 53.0376L127.64 53.0987C128.17 53.1394 128.635 53.2514 129.035 53.4347C129.436 53.618 129.744 53.8657 129.962 54.178C130.186 54.4902 130.298 54.867 130.298 55.3082C130.298 55.7765 130.175 56.1906 129.931 56.5504C129.687 56.9033 129.337 57.1782 128.882 57.3751C128.434 57.5719 127.905 57.6704 127.294 57.6704ZM133.817 57.4769V50.0442H135.232V57.4769H133.817ZM135.029 57.4769V56.2551H138.399V57.4769H135.029ZM135.029 54.3104V53.0885H138.134V54.3104H135.029ZM135.029 51.266V50.0442H138.317V51.266H135.029ZM142.358 57.6704C141.7 57.6704 141.143 57.5651 140.688 57.3547C140.24 57.1443 139.897 56.8558 139.66 56.4893C139.422 56.1159 139.303 55.6951 139.303 55.2267H140.719C140.719 55.4236 140.773 55.617 140.882 55.8071C140.99 55.9904 141.163 56.1397 141.401 56.2551C141.645 56.3705 141.964 56.4282 142.358 56.4282C142.711 56.4282 143.006 56.3773 143.244 56.2754C143.481 56.1736 143.658 56.0413 143.773 55.8784C143.889 55.7087 143.946 55.5186 143.946 55.3082C143.946 55.0434 143.834 54.833 143.61 54.6769C143.386 54.514 143.04 54.4122 142.572 54.3714L141.92 54.3205C141.207 54.2594 140.637 54.0388 140.21 53.6587C139.789 53.2718 139.578 52.7627 139.578 52.1314C139.578 51.6563 139.69 51.249 139.914 50.9096C140.138 50.5634 140.451 50.2987 140.851 50.1154C141.258 49.9254 141.733 49.8303 142.277 49.8303C142.84 49.8303 143.325 49.9288 143.733 50.1256C144.14 50.3225 144.455 50.6008 144.679 50.9605C144.903 51.3135 145.015 51.731 145.015 52.2129H143.6C143.6 52.0093 143.549 51.8226 143.447 51.6529C143.352 51.4764 143.206 51.3373 143.01 51.2354C142.82 51.1268 142.575 51.0725 142.277 51.0725C141.991 51.0725 141.754 51.12 141.564 51.2151C141.374 51.3101 141.231 51.4391 141.136 51.602C141.041 51.7649 140.994 51.9414 140.994 52.1314C140.994 52.3622 141.078 52.5659 141.248 52.7423C141.418 52.912 141.686 53.0105 142.053 53.0376L142.704 53.0987C143.234 53.1394 143.699 53.2514 144.099 53.4347C144.5 53.618 144.808 53.8657 145.026 54.178C145.25 54.4902 145.362 54.867 145.362 55.3082C145.362 55.7765 145.239 56.1906 144.995 56.5504C144.751 56.9033 144.401 57.1782 143.946 57.3751C143.498 57.5719 142.969 57.6704 142.358 57.6704ZM147.926 55.1962V53.9438H149.371C149.663 53.9438 149.908 53.8861 150.105 53.7707C150.308 53.6553 150.461 53.4958 150.563 53.2922C150.671 53.0885 150.726 52.8543 150.726 52.5896C150.726 52.3249 150.671 52.0907 150.563 51.8871C150.461 51.6834 150.308 51.5273 150.105 51.4187C149.908 51.3033 149.663 51.2456 149.371 51.2456H147.926V49.9933H149.249C149.874 49.9933 150.403 50.0951 150.838 50.2987C151.279 50.5023 151.615 50.7942 151.846 51.1743C152.076 51.5477 152.192 51.9923 152.192 52.5082V52.6711C152.192 53.187 152.076 53.635 151.846 54.0151C151.615 54.3884 151.279 54.6803 150.838 54.8907C150.403 55.0944 149.874 55.1962 149.249 55.1962H147.926ZM146.683 57.4769V49.9933H148.129V57.4769H146.683ZM156.878 57.6704C156.206 57.6704 155.622 57.5516 155.126 57.314C154.638 57.0764 154.23 56.7676 153.904 56.3874C153.585 56.0005 153.344 55.5865 153.182 55.1453C153.025 54.6973 152.947 54.2662 152.947 53.8522V53.6282C152.947 53.1734 153.029 52.722 153.192 52.274C153.355 51.8192 153.599 51.4085 153.925 51.042C154.257 50.6754 154.668 50.3836 155.157 50.1663C155.646 49.9423 156.219 49.8303 156.878 49.8303C157.529 49.8303 158.099 49.9423 158.588 50.1663C159.077 50.3836 159.484 50.6754 159.81 51.042C160.143 51.4085 160.39 51.8192 160.553 52.274C160.716 52.722 160.798 53.1734 160.798 53.6282V53.8522C160.798 54.2662 160.716 54.6973 160.553 55.1453C160.397 55.5865 160.156 56.0005 159.83 56.3874C159.511 56.7676 159.104 57.0764 158.608 57.314C158.12 57.5516 157.543 57.6704 156.878 57.6704ZM156.878 56.3264C157.258 56.3264 157.597 56.2585 157.896 56.1227C158.201 55.987 158.459 55.8003 158.67 55.5627C158.887 55.3184 159.05 55.0434 159.158 54.738C159.274 54.4257 159.331 54.0965 159.331 53.7504C159.331 53.377 159.274 53.0342 159.158 52.722C159.05 52.4097 158.887 52.1382 158.67 51.9074C158.459 51.6767 158.201 51.4968 157.896 51.3678C157.59 51.2388 157.251 51.1743 156.878 51.1743C156.497 51.1743 156.155 51.2388 155.849 51.3678C155.544 51.4968 155.282 51.6767 155.065 51.9074C154.855 52.1382 154.692 52.4097 154.576 52.722C154.468 53.0342 154.414 53.377 154.414 53.7504C154.414 54.0965 154.468 54.4257 154.576 54.738C154.692 55.0434 154.855 55.3184 155.065 55.5627C155.282 55.8003 155.544 55.987 155.849 56.1227C156.155 56.2585 156.497 56.3264 156.878 56.3264ZM162.195 57.4769V49.9933H163.641V57.4769H162.195ZM166.736 57.4769L164.455 54.2391H166.074L168.426 57.4769H166.736ZM163.213 54.9925V53.8216H165.107C165.372 53.8216 165.599 53.7673 165.789 53.6587C165.986 53.5501 166.139 53.3974 166.247 53.2005C166.356 53.0037 166.41 52.7797 166.41 52.5285C166.41 52.2706 166.356 52.0432 166.247 51.8463C166.139 51.6495 165.986 51.4968 165.789 51.3882C165.599 51.2796 165.372 51.2253 165.107 51.2253H163.213V49.9933H164.954C165.551 49.9933 166.067 50.0815 166.502 50.258C166.943 50.4345 167.282 50.7026 167.52 51.0623C167.758 51.4221 167.876 51.8735 167.876 52.4165V52.5794C167.876 53.1293 167.754 53.5807 167.51 53.9336C167.272 54.2866 166.936 54.5513 166.502 54.7278C166.067 54.9043 165.551 54.9925 164.954 54.9925H163.213ZM170.8 57.4769V51.1133H172.246V57.4769H170.8ZM168.652 51.3169V50.0442H174.394V51.3169H168.652ZM175.569 57.4769V50.0442H177.015V57.4769H175.569ZM180.539 57.4769L178.167 50.0442H179.664L181.629 56.4791L181.201 56.2754H182.301L181.863 56.4791L183.675 50.0442H185.121L182.922 57.4769H180.539ZM185.077 57.4769L187.612 50.0442H189.974L192.581 57.4769H191.094L188.885 51.0318L189.404 51.2558H188.131L188.661 51.0318L186.523 57.4769H185.077ZM186.848 55.5016L187.307 54.2798H190.32L190.768 55.5016H186.848ZM196.171 57.6704C195.512 57.6704 194.955 57.5651 194.501 57.3547C194.053 57.1443 193.71 56.8558 193.472 56.4893C193.235 56.1159 193.116 55.6951 193.116 55.2267H194.531C194.531 55.4236 194.586 55.617 194.694 55.8071C194.803 55.9904 194.976 56.1397 195.213 56.2551C195.458 56.3705 195.777 56.4282 196.171 56.4282C196.523 56.4282 196.819 56.3773 197.056 56.2754C197.294 56.1736 197.47 56.0413 197.586 55.8784C197.701 55.7087 197.759 55.5186 197.759 55.3082C197.759 55.0434 197.647 54.833 197.423 54.6769C197.199 54.514 196.853 54.4122 196.384 54.3714L195.733 54.3205C195.02 54.2594 194.45 54.0388 194.022 53.6587C193.601 53.2718 193.391 52.7627 193.391 52.1314C193.391 51.6563 193.503 51.249 193.727 50.9096C193.951 50.5634 194.263 50.2987 194.664 50.1154C195.071 49.9254 195.546 49.8303 196.089 49.8303C196.652 49.8303 197.138 49.9288 197.545 50.1256C197.952 50.3225 198.268 50.6008 198.492 50.9605C198.716 51.3135 198.828 51.731 198.828 52.2129H197.413C197.413 52.0093 197.362 51.8226 197.26 51.6529C197.165 51.4764 197.019 51.3373 196.822 51.2354C196.632 51.1268 196.388 51.0725 196.089 51.0725C195.804 51.0725 195.566 51.12 195.376 51.2151C195.186 51.3101 195.044 51.4391 194.949 51.602C194.854 51.7649 194.806 51.9414 194.806 52.1314C194.806 52.3622 194.891 52.5659 195.061 52.7423C195.23 52.912 195.499 53.0105 195.865 53.0376L196.517 53.0987C197.046 53.1394 197.511 53.2514 197.912 53.4347C198.312 53.618 198.621 53.8657 198.838 54.178C199.062 54.4902 199.174 54.867 199.174 55.3082C199.174 55.7765 199.052 56.1906 198.808 56.5504C198.563 56.9033 198.214 57.1782 197.759 57.3751C197.311 57.5719 196.781 57.6704 196.171 57.6704Z" fill="url(#paint1_linear_7805_6)"/>
</g>
<defs>
<linearGradient id="paint0_linear_7805_6" x1="236.6" y1="6.43907" x2="228.456" y2="64.8496" gradientUnits="userSpaceOnUse">
<stop stop-color="#68D250"/>
<stop offset="1" stop-color="#2E9A18"/>
</linearGradient>
<linearGradient id="paint1_linear_7805_6" x1="236.6" y1="49.9619" x2="236.105" y2="64.5007" gradientUnits="userSpaceOnUse">
<stop stop-color="#68D250"/>
<stop offset="1" stop-color="#2E9A18"/>
</linearGradient>
</defs>
</svg>
