<svg width="280" height="60" viewBox="0 0 280 60" fill="none" xmlns="http://www.w3.org/2000/svg">
<g id="logo-tulum-tips">
<g id="TULUMTIPS">
<path d="M28.9989 36V10.5454H34.7822V36H28.9989ZM20.4055 11.36V6.26907H43.3757V11.36H20.4055ZM60.1716 36.7738C57.4021 36.7738 55.0671 36.2444 53.1665 35.1855C51.2658 34.1265 49.8132 32.6468 48.8086 30.7462C47.8312 28.8184 47.3425 26.5648 47.3425 23.9854V6.26907H53.1257V24.3113C53.1257 25.7231 53.3972 26.9721 53.9403 28.0582C54.4833 29.1171 55.2707 29.9452 56.3025 30.5425C57.3614 31.1127 58.6511 31.3978 60.1716 31.3978C61.6649 31.3978 62.9274 31.1127 63.9592 30.5425C65.0181 29.9452 65.8055 29.1171 66.3214 28.0582C66.8644 26.9993 67.1359 25.7503 67.1359 24.3113V6.26907H72.9192V23.9854C72.9192 26.5648 72.4305 28.8184 71.453 30.7462C70.5027 32.6468 69.0773 34.1265 67.1766 35.1855C65.276 36.2444 62.941 36.7738 60.1716 36.7738ZM79.6911 36V6.26907H85.4743V36H79.6911ZM84.6598 36V30.9091H97.4889V36H84.6598ZM113.547 36.7738C110.777 36.7738 108.442 36.2444 106.541 35.1855C104.641 34.1265 103.188 32.6468 102.184 30.7462C101.206 28.8184 100.717 26.5648 100.717 23.9854V6.26907H106.501V24.3113C106.501 25.7231 106.772 26.9721 107.315 28.0582C107.858 29.1171 108.646 29.9452 109.677 30.5425C110.736 31.1127 112.026 31.3978 113.547 31.3978C115.04 31.3978 116.302 31.1127 117.334 30.5425C118.393 29.9452 119.181 29.1171 119.696 28.0582C120.239 26.9993 120.511 25.7503 120.511 24.3113V6.26907H126.294V23.9854C126.294 26.5648 125.806 28.8184 124.828 30.7462C123.878 32.6468 122.452 34.1265 120.552 35.1855C118.651 36.2444 116.316 36.7738 113.547 36.7738ZM133.066 36V6.26907H140.967L148.42 24.0262H149.153L156.566 6.26907H164.589V36H158.846V10.6269L159.58 10.7083L151.556 29.9316H145.651L137.587 10.7083L138.361 10.6269V36H133.066Z" fill="#F6FFF6"/>
<path d="M177.789 36V10.5454H183.572V36H177.789ZM169.195 11.36V6.26907H192.166V11.36H169.195ZM196.864 36V6.26907H202.647V36H196.864ZM215.035 26.8771V21.8676H220.818C221.986 21.8676 222.963 21.6368 223.751 21.1753C224.565 20.7137 225.176 20.0756 225.583 19.2611C226.018 18.4465 226.235 17.5098 226.235 16.4509C226.235 15.392 226.018 14.4553 225.583 13.6407C225.176 12.8262 224.565 12.2017 223.751 11.7673C222.963 11.3057 221.986 11.0749 220.818 11.0749H215.035V6.06543H220.329C222.827 6.06543 224.945 6.47271 226.683 7.28725C228.448 8.1018 229.792 9.26932 230.715 10.7898C231.638 12.2831 232.1 14.0616 232.1 16.1251V16.7767C232.1 18.8402 231.638 20.6322 230.715 22.1527C229.792 23.6461 228.448 24.8136 226.683 25.6553C224.945 26.4698 222.827 26.8771 220.329 26.8771H215.035ZM210.066 36V6.06543H215.849V36H210.066ZM246.895 36.7738C244.261 36.7738 242.035 36.353 240.215 35.5113C238.423 34.6696 237.052 33.5156 236.102 32.0495C235.152 30.5561 234.677 28.8727 234.677 26.9993H240.338C240.338 27.7867 240.555 28.5605 240.989 29.3207C241.424 30.0538 242.116 30.6511 243.066 31.1127C244.044 31.5743 245.32 31.8051 246.895 31.8051C248.307 31.8051 249.488 31.6015 250.438 31.1942C251.388 30.7869 252.094 30.2575 252.556 29.6058C253.017 28.927 253.248 28.1668 253.248 27.3251C253.248 26.2662 252.8 25.4245 251.904 24.8C251.008 24.1484 249.623 23.7411 247.75 23.5782L245.143 23.3745C242.293 23.1302 240.012 22.2477 238.301 20.7273C236.618 19.1796 235.776 17.1433 235.776 14.6182C235.776 12.7176 236.224 11.0885 237.12 9.73089C238.016 8.34616 239.265 7.28725 240.867 6.55416C242.496 5.79392 244.397 5.4138 246.569 5.4138C248.823 5.4138 250.764 5.80749 252.393 6.59489C254.022 7.38228 255.285 8.4955 256.181 9.93453C257.077 11.3464 257.525 13.0162 257.525 14.944H251.863C251.863 14.1294 251.66 13.3828 251.253 12.704C250.872 11.998 250.289 11.4414 249.501 11.0342C248.741 10.5997 247.764 10.3825 246.569 10.3825C245.429 10.3825 244.478 10.5726 243.718 10.9527C242.958 11.3328 242.388 11.8487 242.007 12.5003C241.627 13.152 241.437 13.8579 241.437 14.6182C241.437 15.5413 241.777 16.3559 242.455 17.0618C243.134 17.7406 244.207 18.1343 245.673 18.2429L248.279 18.4873C250.397 18.6502 252.257 19.0982 253.859 19.8313C255.461 20.5644 256.696 21.5554 257.565 22.8044C258.461 24.0533 258.909 25.5602 258.909 27.3251C258.909 29.1985 258.421 30.8548 257.443 32.2938C256.466 33.7057 255.067 34.8053 253.248 35.5927C251.456 36.3801 249.338 36.7738 246.895 36.7738Z" fill="#3A3B39"/>
</g>
<path id="APOSTAS ESPORTIVAS" d="M80.6038 57.1128L83.139 49.6801H85.5012L88.1078 57.1128H86.6212L84.4118 50.6677L84.931 50.8917H83.6583L84.1878 50.6677L82.0496 57.1128H80.6038ZM82.3754 55.1375L82.8336 53.9157H85.8474L86.2954 55.1375H82.3754ZM90.454 54.8321V53.5797H91.8999C92.1917 53.5797 92.4361 53.522 92.633 53.4066C92.8366 53.2912 92.9893 53.1317 93.0911 52.9281C93.1997 52.7244 93.2541 52.4902 93.2541 52.2255C93.2541 51.9608 93.1997 51.7266 93.0911 51.523C92.9893 51.3193 92.8366 51.1632 92.633 51.0546C92.4361 50.9392 92.1917 50.8815 91.8999 50.8815H90.454V49.6292H91.7777C92.4022 49.6292 92.9316 49.731 93.3661 49.9346C93.8073 50.1382 94.1433 50.4301 94.3741 50.8102C94.6048 51.1836 94.7202 51.6282 94.7202 52.1441V52.307C94.7202 52.8229 94.6048 53.2709 94.3741 53.651C94.1433 54.0243 93.8073 54.3162 93.3661 54.5266C92.9316 54.7302 92.4022 54.8321 91.7777 54.8321H90.454ZM89.2119 57.1128V49.6292H90.6577V57.1128H89.2119ZM99.4059 57.3062C98.7339 57.3062 98.1502 57.1875 97.6547 56.9499C97.1659 56.7123 96.7587 56.4035 96.4328 56.0233C96.1138 55.6364 95.8728 55.2224 95.7099 54.7812C95.5538 54.3332 95.4758 53.9021 95.4758 53.4881V53.2641C95.4758 52.8093 95.5572 52.3579 95.7201 51.9099C95.883 51.4551 96.1274 51.0444 96.4532 50.6779C96.7858 50.3113 97.1965 50.0195 97.6852 49.8022C98.1739 49.5782 98.7475 49.4662 99.4059 49.4662C100.058 49.4662 100.628 49.5782 101.116 49.8022C101.605 50.0195 102.012 50.3113 102.338 50.6779C102.671 51.0444 102.919 51.4551 103.082 51.9099C103.244 52.3579 103.326 52.8093 103.326 53.2641V53.4881C103.326 53.9021 103.244 54.3332 103.082 54.7812C102.925 55.2224 102.684 55.6364 102.359 56.0233C102.04 56.4035 101.632 56.7123 101.137 56.9499C100.648 57.1875 100.071 57.3062 99.4059 57.3062ZM99.4059 55.9622C99.7861 55.9622 100.125 55.8944 100.424 55.7586C100.73 55.6229 100.988 55.4362 101.198 55.1986C101.415 54.9542 101.578 54.6793 101.687 54.3739C101.802 54.0616 101.86 53.7324 101.86 53.3862C101.86 53.0129 101.802 52.6701 101.687 52.3579C101.578 52.0456 101.415 51.7741 101.198 51.5433C100.988 51.3125 100.73 51.1327 100.424 51.0037C100.119 50.8747 99.7793 50.8102 99.4059 50.8102C99.0258 50.8102 98.683 50.8747 98.3776 51.0037C98.0721 51.1327 97.8108 51.3125 97.5936 51.5433C97.3831 51.7741 97.2202 52.0456 97.1048 52.3579C96.9962 52.6701 96.9419 53.0129 96.9419 53.3862C96.9419 53.7324 96.9962 54.0616 97.1048 54.3739C97.2202 54.6793 97.3831 54.9542 97.5936 55.1986C97.8108 55.4362 98.0721 55.6229 98.3776 55.7586C98.683 55.8944 99.0258 55.9622 99.4059 55.9622ZM107.219 57.3062C106.56 57.3062 106.004 57.201 105.549 56.9906C105.101 56.7802 104.758 56.4917 104.521 56.1252C104.283 55.7518 104.164 55.331 104.164 54.8626H105.579C105.579 55.0595 105.634 55.2529 105.742 55.443C105.851 55.6262 106.024 55.7756 106.262 55.891C106.506 56.0064 106.825 56.0641 107.219 56.0641C107.572 56.0641 107.867 56.0132 108.105 55.9113C108.342 55.8095 108.519 55.6772 108.634 55.5142C108.749 55.3445 108.807 55.1545 108.807 54.9441C108.807 54.6793 108.695 54.4689 108.471 54.3128C108.247 54.1499 107.901 54.0481 107.433 54.0073L106.781 53.9564C106.068 53.8953 105.498 53.6747 105.07 53.2946C104.65 52.9077 104.439 52.3986 104.439 51.7673C104.439 51.2922 104.551 50.8849 104.775 50.5455C104.999 50.1993 105.311 49.9346 105.712 49.7513C106.119 49.5613 106.594 49.4662 107.137 49.4662C107.701 49.4662 108.186 49.5647 108.593 49.7615C109.001 49.9584 109.316 50.2367 109.54 50.5964C109.764 50.9494 109.876 51.3668 109.876 51.8488H108.461C108.461 51.6452 108.41 51.4585 108.308 51.2888C108.213 51.1123 108.067 50.9732 107.87 50.8713C107.68 50.7627 107.436 50.7084 107.137 50.7084C106.852 50.7084 106.615 50.7559 106.425 50.851C106.234 50.946 106.092 51.075 105.997 51.2379C105.902 51.4008 105.854 51.5773 105.854 51.7673C105.854 51.9981 105.939 52.2018 106.109 52.3782C106.279 52.5479 106.547 52.6464 106.913 52.6735L107.565 52.7346C108.094 52.7753 108.559 52.8873 108.96 53.0706C109.36 53.2539 109.669 53.5016 109.886 53.8139C110.11 54.1261 110.222 54.5029 110.222 54.9441C110.222 55.4124 110.1 55.8265 109.856 56.1862C109.611 56.5392 109.262 56.8141 108.807 57.011C108.359 57.2078 107.83 57.3062 107.219 57.3062ZM112.812 57.1128V50.7492H114.257V57.1128H112.812ZM110.663 50.9528V49.6801H116.406V50.9528H110.663ZM116.2 57.1128L118.736 49.6801H121.098L123.704 57.1128H122.218L120.008 50.6677L120.528 50.8917H119.255L119.784 50.6677L117.646 57.1128H116.2ZM117.972 55.1375L118.43 53.9157H121.444L121.892 55.1375H117.972ZM127.294 57.3062C126.636 57.3062 126.079 57.201 125.624 56.9906C125.176 56.7802 124.833 56.4917 124.596 56.1252C124.358 55.7518 124.239 55.331 124.239 54.8626H125.655C125.655 55.0595 125.709 55.2529 125.818 55.443C125.926 55.6262 126.099 55.7756 126.337 55.891C126.581 56.0064 126.9 56.0641 127.294 56.0641C127.647 56.0641 127.942 56.0132 128.18 55.9113C128.417 55.8095 128.594 55.6772 128.709 55.5142C128.825 55.3445 128.882 55.1545 128.882 54.9441C128.882 54.6793 128.77 54.4689 128.546 54.3128C128.322 54.1499 127.976 54.0481 127.508 54.0073L126.856 53.9564C126.143 53.8953 125.573 53.6747 125.146 53.2946C124.725 52.9077 124.514 52.3986 124.514 51.7673C124.514 51.2922 124.626 50.8849 124.85 50.5455C125.074 50.1993 125.387 49.9346 125.787 49.7513C126.194 49.5613 126.67 49.4662 127.213 49.4662C127.776 49.4662 128.261 49.5647 128.669 49.7615C129.076 49.9584 129.391 50.2367 129.615 50.5964C129.839 50.9494 129.951 51.3668 129.951 51.8488H128.536C128.536 51.6452 128.485 51.4585 128.383 51.2888C128.288 51.1123 128.143 50.9732 127.946 50.8713C127.756 50.7627 127.511 50.7084 127.213 50.7084C126.927 50.7084 126.69 50.7559 126.5 50.851C126.31 50.946 126.167 51.075 126.072 51.2379C125.977 51.4008 125.93 51.5773 125.93 51.7673C125.93 51.9981 126.015 52.2018 126.184 52.3782C126.354 52.5479 126.622 52.6464 126.989 52.6735L127.64 52.7346C128.17 52.7753 128.635 52.8873 129.035 53.0706C129.436 53.2539 129.744 53.5016 129.962 53.8139C130.186 54.1261 130.298 54.5029 130.298 54.9441C130.298 55.4124 130.175 55.8265 129.931 56.1862C129.687 56.5392 129.337 56.8141 128.882 57.011C128.434 57.2078 127.905 57.3062 127.294 57.3062ZM133.817 57.1128V49.6801H135.232V57.1128H133.817ZM135.029 57.1128V55.891H138.399V57.1128H135.029ZM135.029 53.9462V52.7244H138.134V53.9462H135.029ZM135.029 50.9019V49.6801H138.317V50.9019H135.029ZM142.358 57.3062C141.7 57.3062 141.143 57.201 140.688 56.9906C140.24 56.7802 139.897 56.4917 139.66 56.1252C139.422 55.7518 139.303 55.331 139.303 54.8626H140.719C140.719 55.0595 140.773 55.2529 140.882 55.443C140.99 55.6262 141.163 55.7756 141.401 55.891C141.645 56.0064 141.964 56.0641 142.358 56.0641C142.711 56.0641 143.006 56.0132 143.244 55.9113C143.481 55.8095 143.658 55.6772 143.773 55.5142C143.889 55.3445 143.946 55.1545 143.946 54.9441C143.946 54.6793 143.834 54.4689 143.61 54.3128C143.386 54.1499 143.04 54.0481 142.572 54.0073L141.92 53.9564C141.207 53.8953 140.637 53.6747 140.21 53.2946C139.789 52.9077 139.578 52.3986 139.578 51.7673C139.578 51.2922 139.69 50.8849 139.914 50.5455C140.138 50.1993 140.451 49.9346 140.851 49.7513C141.258 49.5613 141.733 49.4662 142.277 49.4662C142.84 49.4662 143.325 49.5647 143.733 49.7615C144.14 49.9584 144.455 50.2367 144.679 50.5964C144.903 50.9494 145.015 51.3668 145.015 51.8488H143.6C143.6 51.6452 143.549 51.4585 143.447 51.2888C143.352 51.1123 143.206 50.9732 143.01 50.8713C142.82 50.7627 142.575 50.7084 142.277 50.7084C141.991 50.7084 141.754 50.7559 141.564 50.851C141.374 50.946 141.231 51.075 141.136 51.2379C141.041 51.4008 140.994 51.5773 140.994 51.7673C140.994 51.9981 141.078 52.2018 141.248 52.3782C141.418 52.5479 141.686 52.6464 142.053 52.6735L142.704 52.7346C143.234 52.7753 143.699 52.8873 144.099 53.0706C144.5 53.2539 144.808 53.5016 145.026 53.8139C145.25 54.1261 145.362 54.5029 145.362 54.9441C145.362 55.4124 145.239 55.8265 144.995 56.1862C144.751 56.5392 144.401 56.8141 143.946 57.011C143.498 57.2078 142.969 57.3062 142.358 57.3062ZM147.926 54.8321V53.5797H149.371C149.663 53.5797 149.908 53.522 150.105 53.4066C150.308 53.2912 150.461 53.1317 150.563 52.9281C150.671 52.7244 150.726 52.4902 150.726 52.2255C150.726 51.9608 150.671 51.7266 150.563 51.523C150.461 51.3193 150.308 51.1632 150.105 51.0546C149.908 50.9392 149.663 50.8815 149.371 50.8815H147.926V49.6292H149.249C149.874 49.6292 150.403 49.731 150.838 49.9346C151.279 50.1382 151.615 50.4301 151.846 50.8102C152.076 51.1836 152.192 51.6282 152.192 52.1441V52.307C152.192 52.8229 152.076 53.2709 151.846 53.651C151.615 54.0243 151.279 54.3162 150.838 54.5266C150.403 54.7302 149.874 54.8321 149.249 54.8321H147.926ZM146.683 57.1128V49.6292H148.129V57.1128H146.683ZM156.878 57.3062C156.206 57.3062 155.622 57.1875 155.126 56.9499C154.638 56.7123 154.23 56.4035 153.904 56.0233C153.585 55.6364 153.344 55.2224 153.182 54.7812C153.025 54.3332 152.947 53.9021 152.947 53.4881V53.2641C152.947 52.8093 153.029 52.3579 153.192 51.9099C153.355 51.4551 153.599 51.0444 153.925 50.6779C154.257 50.3113 154.668 50.0195 155.157 49.8022C155.646 49.5782 156.219 49.4662 156.878 49.4662C157.529 49.4662 158.099 49.5782 158.588 49.8022C159.077 50.0195 159.484 50.3113 159.81 50.6779C160.143 51.0444 160.39 51.4551 160.553 51.9099C160.716 52.3579 160.798 52.8093 160.798 53.2641V53.4881C160.798 53.9021 160.716 54.3332 160.553 54.7812C160.397 55.2224 160.156 55.6364 159.83 56.0233C159.511 56.4035 159.104 56.7123 158.608 56.9499C158.12 57.1875 157.543 57.3062 156.878 57.3062ZM156.878 55.9622C157.258 55.9622 157.597 55.8944 157.896 55.7586C158.201 55.6229 158.459 55.4362 158.67 55.1986C158.887 54.9542 159.05 54.6793 159.158 54.3739C159.274 54.0616 159.331 53.7324 159.331 53.3862C159.331 53.0129 159.274 52.6701 159.158 52.3579C159.05 52.0456 158.887 51.7741 158.67 51.5433C158.459 51.3125 158.201 51.1327 157.896 51.0037C157.59 50.8747 157.251 50.8102 156.878 50.8102C156.497 50.8102 156.155 50.8747 155.849 51.0037C155.544 51.1327 155.282 51.3125 155.065 51.5433C154.855 51.7741 154.692 52.0456 154.576 52.3579C154.468 52.6701 154.414 53.0129 154.414 53.3862C154.414 53.7324 154.468 54.0616 154.576 54.3739C154.692 54.6793 154.855 54.9542 155.065 55.1986C155.282 55.4362 155.544 55.6229 155.849 55.7586C156.155 55.8944 156.497 55.9622 156.878 55.9622ZM162.195 57.1128V49.6292H163.641V57.1128H162.195ZM166.736 57.1128L164.455 53.875H166.074L168.426 57.1128H166.736ZM163.213 54.6284V53.4575H165.107C165.372 53.4575 165.599 53.4032 165.789 53.2946C165.986 53.186 166.139 53.0333 166.247 52.8364C166.356 52.6396 166.41 52.4156 166.41 52.1644C166.41 51.9065 166.356 51.6791 166.247 51.4822C166.139 51.2854 165.986 51.1327 165.789 51.0241C165.599 50.9155 165.372 50.8612 165.107 50.8612H163.213V49.6292H164.954C165.551 49.6292 166.067 49.7174 166.502 49.8939C166.943 50.0704 167.282 50.3385 167.52 50.6982C167.758 51.058 167.876 51.5094 167.876 52.0524V52.2153C167.876 52.7652 167.754 53.2165 167.51 53.5695C167.272 53.9225 166.936 54.1872 166.502 54.3637C166.067 54.5402 165.551 54.6284 164.954 54.6284H163.213ZM170.8 57.1128V50.7492H172.246V57.1128H170.8ZM168.652 50.9528V49.6801H174.394V50.9528H168.652ZM175.569 57.1128V49.6801H177.015V57.1128H175.569ZM180.539 57.1128L178.167 49.6801H179.664L181.629 56.115L181.201 55.9113H182.301L181.863 56.115L183.675 49.6801H185.121L182.922 57.1128H180.539ZM185.077 57.1128L187.612 49.6801H189.974L192.581 57.1128H191.094L188.885 50.6677L189.404 50.8917H188.131L188.661 50.6677L186.523 57.1128H185.077ZM186.848 55.1375L187.307 53.9157H190.32L190.768 55.1375H186.848ZM196.171 57.3062C195.512 57.3062 194.955 57.201 194.501 56.9906C194.053 56.7802 193.71 56.4917 193.472 56.1252C193.235 55.7518 193.116 55.331 193.116 54.8626H194.531C194.531 55.0595 194.586 55.2529 194.694 55.443C194.803 55.6262 194.976 55.7756 195.213 55.891C195.458 56.0064 195.777 56.0641 196.171 56.0641C196.523 56.0641 196.819 56.0132 197.056 55.9113C197.294 55.8095 197.47 55.6772 197.586 55.5142C197.701 55.3445 197.759 55.1545 197.759 54.9441C197.759 54.6793 197.647 54.4689 197.423 54.3128C197.199 54.1499 196.853 54.0481 196.384 54.0073L195.733 53.9564C195.02 53.8953 194.45 53.6747 194.022 53.2946C193.601 52.9077 193.391 52.3986 193.391 51.7673C193.391 51.2922 193.503 50.8849 193.727 50.5455C193.951 50.1993 194.263 49.9346 194.664 49.7513C195.071 49.5613 195.546 49.4662 196.089 49.4662C196.652 49.4662 197.138 49.5647 197.545 49.7615C197.952 49.9584 198.268 50.2367 198.492 50.5964C198.716 50.9494 198.828 51.3668 198.828 51.8488H197.413C197.413 51.6452 197.362 51.4585 197.26 51.2888C197.165 51.1123 197.019 50.9732 196.822 50.8713C196.632 50.7627 196.388 50.7084 196.089 50.7084C195.804 50.7084 195.566 50.7559 195.376 50.851C195.186 50.946 195.044 51.075 194.949 51.2379C194.854 51.4008 194.806 51.5773 194.806 51.7673C194.806 51.9981 194.891 52.2018 195.061 52.3782C195.23 52.5479 195.499 52.6464 195.865 52.6735L196.517 52.7346C197.046 52.7753 197.511 52.8873 197.912 53.0706C198.312 53.2539 198.621 53.5016 198.838 53.8139C199.062 54.1261 199.174 54.5029 199.174 54.9441C199.174 55.4124 199.052 55.8265 198.808 56.1862C198.563 56.5392 198.214 56.8141 197.759 57.011C197.311 57.2078 196.781 57.3062 196.171 57.3062Z" fill="#3A3B39"/>
</g>
</svg>
