<svg width="39" height="34" viewBox="0 0 39 34" fill="none" xmlns="http://www.w3.org/2000/svg">
<path d="M36.3276 1C37.4676 1 38.3276 2 37.8676 3.86L32.2876 30.16C31.8976 32.03 30.7676 32.48 29.2076 31.61L15.8976 21.78C15.846 21.743 15.804 21.6942 15.775 21.6377C15.746 21.5811 15.7308 21.5185 15.7308 21.455C15.7308 21.3915 15.746 21.3289 15.775 21.2723C15.804 21.2158 15.846 21.167 15.8976 21.13L31.2676 7.25C31.9676 6.63 31.1176 6.33 30.1976 6.89L10.9076 19.06C10.8491 19.0982 10.7827 19.1225 10.7134 19.1311C10.6441 19.1398 10.5737 19.1326 10.5076 19.11L2.31765 16.52C0.497648 15.99 0.497648 14.74 2.72765 13.85L35.4976 1.21C35.7575 1.08532 36.0397 1.01392 36.3276 1V1Z" stroke="#EDEAEF" stroke-width="2" stroke-linecap="round" stroke-linejoin="round"/>
</svg>
